<svg width="22" height="31" viewBox="0 0 22 31" fill="none" xmlns="http://www.w3.org/2000/svg">
<g clip-path="url(#clip0_312_2111)">
<path d="M10.1049 20.9395C10.5059 20.9395 10.7794 21.1217 10.9252 21.4863C11.071 21.8509 10.9981 22.1608 10.7065 22.416L6.33146 27.666C6.18563 27.8483 5.98511 27.9395 5.7299 27.9395C5.47469 27.9395 5.27417 27.8483 5.12834 27.666L0.753337 22.416C0.46167 22.1608 0.388753 21.8509 0.534587 21.4863C0.68042 21.1217 0.953857 20.9395 1.3549 20.9395H3.9799V4.31445C3.9799 4.05924 4.06193 3.84961 4.22599 3.68555C4.39006 3.52148 4.59969 3.43945 4.8549 3.43945H6.6049C6.86011 3.43945 7.06974 3.52148 7.23381 3.68555C7.39787 3.84961 7.4799 4.05924 7.4799 4.31445V20.9395H10.1049Z" fill="#0071CC"/>
</g>
<g opacity="0.4" clip-path="url(#clip1_312_2111)">
<path d="M21.2065 8.46289C21.4981 8.7181 21.571 9.02799 21.4252 9.39258C21.2794 9.75716 21.0059 9.93945 20.6049 9.93945H17.9799V26.5645C17.9799 26.8197 17.8979 27.0293 17.7338 27.1934C17.5697 27.3574 17.3601 27.4395 17.1049 27.4395H15.3549C15.0997 27.4395 14.8901 27.3574 14.726 27.1934C14.5619 27.0293 14.4799 26.8197 14.4799 26.5645V9.93945H11.8549C11.4539 9.93945 11.1804 9.75716 11.0346 9.39258C10.8888 9.02799 10.9617 8.7181 11.2533 8.46289L15.6283 3.21289C15.7742 3.0306 15.9747 2.93945 16.2299 2.93945C16.4851 2.93945 16.6856 3.0306 16.8315 3.21289L21.2065 8.46289Z" fill="#0071CC"/>
</g>
<defs>
<clipPath id="clip0_312_2111">
<rect width="21" height="28" fill="white" transform="matrix(1 0 0 -1 0.47998 29.6895)"/>
</clipPath>
<clipPath id="clip1_312_2111">
<rect width="21" height="29" fill="white" transform="matrix(1 0 0 -1 0.47998 29.6895)"/>
</clipPath>
</defs>
</svg>
