<svg width="1366" height="156" viewBox="0 0 1366 156" fill="none" xmlns="http://www.w3.org/2000/svg">
<rect width="1368" height="155.19" fill="#0C2F55"/>
<g clip-path="url(#clip0_200_2436)">
<g clip-path="url(#clip1_200_2436)">
<mask id="mask0_200_2436" style="mask-type:luminance" maskUnits="userSpaceOnUse" x="0" y="-203" width="1440" height="561">
<path d="M1440 -202.404H0V357.596H1440V-202.404Z" fill="white"/>
</mask>
<g mask="url(#mask0_200_2436)">
<path d="M1440 -202.404H0V357.596H1440V-202.404Z" fill="#003A68"/>
<path d="M-6.10352e-05 307.3C96.6609 305.381 184.185 262.479 269.331 216.684C360.89 167.44 466.29 124.775 512.507 31.6506C559.085 -62.2014 535.874 -173.839 513.997 -276.305C493.267 -373.401 453.98 -464.429 390.325 -540.622C325.849 -617.798 243.897 -677.037 149.726 -712.324C50.491 -749.509 -54.9041 -761.543 -159.843 -746.777C-277.174 -730.267 -403.233 -708.377 -485.351 -622.962C-568.692 -536.274 -600.884 -408.953 -600.233 -288.703C-599.628 -176.964 -541.277 -76.9834 -481.883 17.6656C-428.756 102.327 -361.959 176.026 -276.292 227.516C-192.432 277.92 -97.8231 309.242 -6.10352e-05 307.3Z" fill="#002E53"/>
<path d="M1440 944.419C1566.99 953.618 1704.95 1005.25 1814.21 939.873C1923.79 874.305 1961.19 734.417 1996.21 611.61C2027.48 501.975 2036.65 385.63 2003.35 276.599C1972.68 176.225 1892.7 103.841 1818.44 29.6745C1749.18 -39.5025 1679.54 -110.79 1586.13 -140.093C1491.78 -169.693 1392.66 -152.968 1295.55 -134.37C1189.24 -114.013 1082.31 -92.4675 996.046 -27.0915C897.1 47.8985 795.189 139.544 772.964 261.691C750.572 384.755 821.708 502.633 879.473 613.581C934.704 719.662 996.089 827.277 1099.09 888.069C1200.33 947.825 1322.75 935.925 1440 944.419Z" fill="#00467D"/>
</g>
</g>
</g>
<path d="M397.154 134.152C397.154 133.268 397.357 132.475 397.765 131.773C398.181 131.071 398.74 130.525 399.442 130.135C400.152 129.737 400.928 129.537 401.769 129.537C402.731 129.537 403.584 129.776 404.33 130.252C405.084 130.72 405.63 131.388 405.968 132.254H404.187C403.953 131.778 403.628 131.422 403.212 131.188C402.796 130.954 402.315 130.837 401.769 130.837C401.171 130.837 400.638 130.972 400.17 131.24C399.702 131.509 399.333 131.895 399.065 132.397C398.805 132.9 398.675 133.485 398.675 134.152C398.675 134.82 398.805 135.405 399.065 135.907C399.333 136.41 399.702 136.8 400.17 137.077C400.638 137.346 401.171 137.48 401.769 137.48C402.315 137.48 402.796 137.363 403.212 137.129C403.628 136.895 403.953 136.54 404.187 136.063H405.968C405.63 136.93 405.084 137.597 404.33 138.065C403.584 138.533 402.731 138.767 401.769 138.767C400.919 138.767 400.144 138.572 399.442 138.182C398.74 137.784 398.181 137.233 397.765 136.531C397.357 135.829 397.154 135.036 397.154 134.152ZM407.208 135.075C407.208 134.356 407.356 133.719 407.65 133.164C407.954 132.61 408.361 132.181 408.872 131.877C409.392 131.565 409.964 131.409 410.588 131.409C411.152 131.409 411.641 131.522 412.057 131.747C412.482 131.964 412.82 132.237 413.071 132.566V131.526H414.566V138.689H413.071V137.623C412.82 137.961 412.478 138.243 412.044 138.468C411.611 138.694 411.117 138.806 410.562 138.806C409.947 138.806 409.384 138.65 408.872 138.338C408.361 138.018 407.954 137.576 407.65 137.012C407.356 136.44 407.208 135.795 407.208 135.075ZM413.071 135.101C413.071 134.607 412.967 134.178 412.759 133.814C412.56 133.45 412.296 133.173 411.966 132.982C411.637 132.792 411.282 132.696 410.9 132.696C410.519 132.696 410.164 132.792 409.834 132.982C409.505 133.164 409.236 133.437 409.028 133.801C408.829 134.157 408.729 134.581 408.729 135.075C408.729 135.569 408.829 136.003 409.028 136.375C409.236 136.748 409.505 137.034 409.834 137.233C410.172 137.424 410.528 137.519 410.9 137.519C411.282 137.519 411.637 137.424 411.966 137.233C412.296 137.043 412.56 136.765 412.759 136.401C412.967 136.029 413.071 135.595 413.071 135.101ZM417.995 132.566C418.212 132.202 418.498 131.921 418.853 131.721C419.217 131.513 419.646 131.409 420.14 131.409V132.943H419.763C419.182 132.943 418.74 133.091 418.437 133.385C418.142 133.68 417.995 134.191 417.995 134.919V138.689H416.513V131.526H417.995V132.566ZM422.256 130.577C421.988 130.577 421.762 130.486 421.58 130.304C421.398 130.122 421.307 129.897 421.307 129.628C421.307 129.36 421.398 129.134 421.58 128.952C421.762 128.77 421.988 128.679 422.256 128.679C422.516 128.679 422.737 128.77 422.919 128.952C423.101 129.134 423.192 129.36 423.192 129.628C423.192 129.897 423.101 130.122 422.919 130.304C422.737 130.486 422.516 130.577 422.256 130.577ZM422.984 131.526V138.689H421.502V131.526H422.984ZM434.144 129.654V130.863H431.739V138.689H430.257V130.863H427.839V129.654H434.144ZM436.399 130.577C436.13 130.577 435.905 130.486 435.723 130.304C435.541 130.122 435.45 129.897 435.45 129.628C435.45 129.36 435.541 129.134 435.723 128.952C435.905 128.77 436.13 128.679 436.399 128.679C436.659 128.679 436.88 128.77 437.062 128.952C437.244 129.134 437.335 129.36 437.335 129.628C437.335 129.897 437.244 130.122 437.062 130.304C436.88 130.486 436.659 130.577 436.399 130.577ZM437.127 131.526V138.689H435.645V131.526H437.127ZM441.907 135.114L445.209 138.689H443.207L440.555 135.608V138.689H439.073V129.069H440.555V134.659L443.155 131.526H445.209L441.907 135.114ZM452.836 134.932C452.836 135.201 452.819 135.444 452.784 135.66H447.311C447.354 136.232 447.567 136.692 447.948 137.038C448.329 137.385 448.797 137.558 449.352 137.558C450.149 137.558 450.713 137.225 451.042 136.557H452.641C452.424 137.216 452.03 137.758 451.458 138.182C450.895 138.598 450.193 138.806 449.352 138.806C448.667 138.806 448.052 138.655 447.506 138.351C446.969 138.039 446.544 137.606 446.232 137.051C445.929 136.488 445.777 135.838 445.777 135.101C445.777 134.365 445.924 133.719 446.219 133.164C446.522 132.601 446.943 132.168 447.48 131.864C448.026 131.561 448.65 131.409 449.352 131.409C450.028 131.409 450.63 131.557 451.159 131.851C451.688 132.146 452.099 132.562 452.394 133.099C452.689 133.628 452.836 134.239 452.836 134.932ZM451.289 134.464C451.28 133.918 451.085 133.481 450.704 133.151C450.323 132.822 449.85 132.657 449.287 132.657C448.776 132.657 448.338 132.822 447.974 133.151C447.61 133.472 447.393 133.91 447.324 134.464H451.289ZM456.023 132.735V136.7C456.023 136.969 456.084 137.164 456.205 137.285C456.335 137.398 456.552 137.454 456.855 137.454H457.765V138.689H456.595C455.928 138.689 455.417 138.533 455.061 138.221C454.706 137.909 454.528 137.402 454.528 136.7V132.735H453.683V131.526H454.528V129.745H456.023V131.526H457.765V132.735H456.023Z" fill="white"/>
<rect x="415.22" y="87.6895" width="24" height="24" rx="12" fill="#0071CC"/>
<rect x="415.22" y="87.6895" width="24" height="24" rx="12" stroke="white"/>
<path d="M425.319 97.7665V95.6995H428.92V105.189H426.606V97.7665H425.319Z" fill="white"/>
<path d="M556.314 132.345C556.314 132.805 556.205 133.238 555.989 133.645C555.772 134.053 555.425 134.386 554.949 134.646C554.472 134.898 553.861 135.023 553.116 135.023H551.478V138.689H549.996V129.654H553.116C553.809 129.654 554.394 129.776 554.871 130.018C555.356 130.252 555.716 130.573 555.95 130.98C556.192 131.388 556.314 131.843 556.314 132.345ZM553.116 133.814C553.679 133.814 554.099 133.689 554.377 133.437C554.654 133.177 554.793 132.813 554.793 132.345C554.793 131.357 554.234 130.863 553.116 130.863H551.478V133.814H553.116ZM564.292 134.932C564.292 135.201 564.275 135.444 564.24 135.66H558.767C558.81 136.232 559.023 136.692 559.404 137.038C559.785 137.385 560.253 137.558 560.808 137.558C561.605 137.558 562.169 137.225 562.498 136.557H564.097C563.88 137.216 563.486 137.758 562.914 138.182C562.351 138.598 561.649 138.806 560.808 138.806C560.123 138.806 559.508 138.655 558.962 138.351C558.425 138.039 558 137.606 557.688 137.051C557.385 136.488 557.233 135.838 557.233 135.101C557.233 134.365 557.38 133.719 557.675 133.164C557.978 132.601 558.399 132.168 558.936 131.864C559.482 131.561 560.106 131.409 560.808 131.409C561.484 131.409 562.086 131.557 562.615 131.851C563.144 132.146 563.555 132.562 563.85 133.099C564.145 133.628 564.292 134.239 564.292 134.932ZM562.745 134.464C562.736 133.918 562.541 133.481 562.16 133.151C561.779 132.822 561.306 132.657 560.743 132.657C560.232 132.657 559.794 132.822 559.43 133.151C559.066 133.472 558.849 133.91 558.78 134.464H562.745ZM569.364 131.409C569.928 131.409 570.43 131.526 570.872 131.76C571.323 131.994 571.674 132.341 571.925 132.8C572.177 133.26 572.302 133.814 572.302 134.464V138.689H570.833V134.685C570.833 134.044 570.673 133.554 570.352 133.216C570.032 132.87 569.594 132.696 569.039 132.696C568.485 132.696 568.043 132.87 567.713 133.216C567.393 133.554 567.232 134.044 567.232 134.685V138.689H565.75V131.526H567.232V132.345C567.475 132.051 567.783 131.821 568.155 131.656C568.537 131.492 568.94 131.409 569.364 131.409ZM577.079 131.409C577.634 131.409 578.123 131.522 578.548 131.747C578.981 131.964 579.319 132.237 579.562 132.566V131.526H581.057V138.806C581.057 139.465 580.918 140.05 580.641 140.561C580.364 141.081 579.961 141.489 579.432 141.783C578.912 142.078 578.288 142.225 577.56 142.225C576.589 142.225 575.783 141.996 575.142 141.536C574.501 141.086 574.137 140.47 574.05 139.69H575.519C575.632 140.063 575.87 140.362 576.234 140.587C576.607 140.821 577.049 140.938 577.56 140.938C578.158 140.938 578.639 140.756 579.003 140.392C579.376 140.028 579.562 139.5 579.562 138.806V137.61C579.311 137.948 578.968 138.234 578.535 138.468C578.11 138.694 577.625 138.806 577.079 138.806C576.455 138.806 575.883 138.65 575.363 138.338C574.852 138.018 574.444 137.576 574.141 137.012C573.846 136.44 573.699 135.795 573.699 135.075C573.699 134.356 573.846 133.719 574.141 133.164C574.444 132.61 574.852 132.181 575.363 131.877C575.883 131.565 576.455 131.409 577.079 131.409ZM579.562 135.101C579.562 134.607 579.458 134.178 579.25 133.814C579.051 133.45 578.786 133.173 578.457 132.982C578.128 132.792 577.772 132.696 577.391 132.696C577.01 132.696 576.654 132.792 576.325 132.982C575.996 133.164 575.727 133.437 575.519 133.801C575.32 134.157 575.22 134.581 575.22 135.075C575.22 135.569 575.32 136.003 575.519 136.375C575.727 136.748 575.996 137.034 576.325 137.233C576.663 137.424 577.018 137.519 577.391 137.519C577.772 137.519 578.128 137.424 578.457 137.233C578.786 137.043 579.051 136.765 579.25 136.401C579.458 136.029 579.562 135.595 579.562 135.101ZM583.757 130.577C583.489 130.577 583.263 130.486 583.081 130.304C582.899 130.122 582.808 129.897 582.808 129.628C582.808 129.36 582.899 129.134 583.081 128.952C583.263 128.77 583.489 128.679 583.757 128.679C584.017 128.679 584.238 128.77 584.42 128.952C584.602 129.134 584.693 129.36 584.693 129.628C584.693 129.897 584.602 130.122 584.42 130.304C584.238 130.486 584.017 130.577 583.757 130.577ZM584.485 131.526V138.689H583.003V131.526H584.485ZM589.031 138.806C588.468 138.806 587.961 138.707 587.51 138.507C587.068 138.299 586.717 138.022 586.457 137.675C586.197 137.32 586.058 136.926 586.041 136.492H587.575C587.601 136.796 587.744 137.051 588.004 137.259C588.273 137.459 588.606 137.558 589.005 137.558C589.421 137.558 589.742 137.48 589.967 137.324C590.201 137.16 590.318 136.952 590.318 136.7C590.318 136.432 590.188 136.232 589.928 136.102C589.677 135.972 589.274 135.829 588.719 135.673C588.182 135.526 587.744 135.383 587.406 135.244C587.068 135.106 586.773 134.893 586.522 134.607C586.279 134.321 586.158 133.944 586.158 133.476C586.158 133.095 586.271 132.748 586.496 132.436C586.721 132.116 587.042 131.864 587.458 131.682C587.883 131.5 588.368 131.409 588.914 131.409C589.729 131.409 590.383 131.617 590.877 132.033C591.38 132.441 591.648 133 591.683 133.71H590.201C590.175 133.39 590.045 133.134 589.811 132.943C589.577 132.753 589.261 132.657 588.862 132.657C588.472 132.657 588.173 132.731 587.965 132.878C587.757 133.026 587.653 133.221 587.653 133.463C587.653 133.654 587.722 133.814 587.861 133.944C588 134.074 588.169 134.178 588.368 134.256C588.567 134.326 588.862 134.417 589.252 134.529C589.772 134.668 590.197 134.811 590.526 134.958C590.864 135.097 591.154 135.305 591.397 135.582C591.64 135.86 591.765 136.228 591.774 136.687C591.774 137.095 591.661 137.459 591.436 137.779C591.211 138.1 590.89 138.351 590.474 138.533C590.067 138.715 589.586 138.806 589.031 138.806ZM594.129 130.577C593.861 130.577 593.635 130.486 593.453 130.304C593.271 130.122 593.18 129.897 593.18 129.628C593.18 129.36 593.271 129.134 593.453 128.952C593.635 128.77 593.861 128.679 594.129 128.679C594.389 128.679 594.61 128.77 594.792 128.952C594.974 129.134 595.065 129.36 595.065 129.628C595.065 129.897 594.974 130.122 594.792 130.304C594.61 130.486 594.389 130.577 594.129 130.577ZM594.857 131.526V138.689H593.375V131.526H594.857ZM596.309 135.075C596.309 134.356 596.457 133.719 596.751 133.164C597.055 132.61 597.462 132.181 597.973 131.877C598.493 131.565 599.065 131.409 599.689 131.409C600.253 131.409 600.742 131.522 601.158 131.747C601.583 131.964 601.921 132.237 602.172 132.566V131.526H603.667V138.689H602.172V137.623C601.921 137.961 601.579 138.243 601.145 138.468C600.712 138.694 600.218 138.806 599.663 138.806C599.048 138.806 598.485 138.65 597.973 138.338C597.462 138.018 597.055 137.576 596.751 137.012C596.457 136.44 596.309 135.795 596.309 135.075ZM602.172 135.101C602.172 134.607 602.068 134.178 601.86 133.814C601.661 133.45 601.397 133.173 601.067 132.982C600.738 132.792 600.383 132.696 600.001 132.696C599.62 132.696 599.265 132.792 598.935 132.982C598.606 133.164 598.337 133.437 598.129 133.801C597.93 134.157 597.83 134.581 597.83 135.075C597.83 135.569 597.93 136.003 598.129 136.375C598.337 136.748 598.606 137.034 598.935 137.233C599.273 137.424 599.629 137.519 600.001 137.519C600.383 137.519 600.738 137.424 601.067 137.233C601.397 137.043 601.661 136.765 601.86 136.401C602.068 136.029 602.172 135.595 602.172 135.101ZM609.228 131.409C609.791 131.409 610.294 131.526 610.736 131.76C611.186 131.994 611.537 132.341 611.789 132.8C612.04 133.26 612.166 133.814 612.166 134.464V138.689H610.697V134.685C610.697 134.044 610.536 133.554 610.216 133.216C609.895 132.87 609.457 132.696 608.903 132.696C608.348 132.696 607.906 132.87 607.577 133.216C607.256 133.554 607.096 134.044 607.096 134.685V138.689H605.614V131.526H607.096V132.345C607.338 132.051 607.646 131.821 608.019 131.656C608.4 131.492 608.803 131.409 609.228 131.409ZM620.384 129.654C621.346 129.654 622.187 129.841 622.906 130.213C623.634 130.577 624.193 131.106 624.583 131.799C624.982 132.484 625.181 133.286 625.181 134.204C625.181 135.123 624.982 135.92 624.583 136.596C624.193 137.272 623.634 137.792 622.906 138.156C622.187 138.512 621.346 138.689 620.384 138.689H617.433V129.654H620.384ZM620.384 137.48C621.441 137.48 622.252 137.194 622.815 136.622C623.378 136.05 623.66 135.244 623.66 134.204C623.66 133.156 623.378 132.337 622.815 131.747C622.252 131.158 621.441 130.863 620.384 130.863H618.915V137.48H620.384ZM626.156 135.075C626.156 134.356 626.303 133.719 626.598 133.164C626.901 132.61 627.309 132.181 627.82 131.877C628.34 131.565 628.912 131.409 629.536 131.409C630.099 131.409 630.589 131.522 631.005 131.747C631.43 131.964 631.768 132.237 632.019 132.566V131.526H633.514V138.689H632.019V137.623C631.768 137.961 631.425 138.243 630.992 138.468C630.559 138.694 630.065 138.806 629.51 138.806C628.895 138.806 628.331 138.65 627.82 138.338C627.309 138.018 626.901 137.576 626.598 137.012C626.303 136.44 626.156 135.795 626.156 135.075ZM632.019 135.101C632.019 134.607 631.915 134.178 631.707 133.814C631.508 133.45 631.243 133.173 630.914 132.982C630.585 132.792 630.229 132.696 629.848 132.696C629.467 132.696 629.111 132.792 628.782 132.982C628.453 133.164 628.184 133.437 627.976 133.801C627.777 134.157 627.677 134.581 627.677 135.075C627.677 135.569 627.777 136.003 627.976 136.375C628.184 136.748 628.453 137.034 628.782 137.233C629.12 137.424 629.475 137.519 629.848 137.519C630.229 137.519 630.585 137.424 630.914 137.233C631.243 137.043 631.508 136.765 631.707 136.401C631.915 136.029 632.019 135.595 632.019 135.101ZM637.189 132.735V136.7C637.189 136.969 637.25 137.164 637.371 137.285C637.501 137.398 637.718 137.454 638.021 137.454H638.931V138.689H637.761C637.094 138.689 636.583 138.533 636.227 138.221C635.872 137.909 635.694 137.402 635.694 136.7V132.735H634.849V131.526H635.694V129.745H637.189V131.526H638.931V132.735H637.189ZM639.803 135.075C639.803 134.356 639.951 133.719 640.245 133.164C640.549 132.61 640.956 132.181 641.467 131.877C641.987 131.565 642.559 131.409 643.183 131.409C643.747 131.409 644.236 131.522 644.652 131.747C645.077 131.964 645.415 132.237 645.666 132.566V131.526H647.161V138.689H645.666V137.623C645.415 137.961 645.073 138.243 644.639 138.468C644.206 138.694 643.712 138.806 643.157 138.806C642.542 138.806 641.979 138.65 641.467 138.338C640.956 138.018 640.549 137.576 640.245 137.012C639.951 136.44 639.803 135.795 639.803 135.075ZM645.666 135.101C645.666 134.607 645.562 134.178 645.354 133.814C645.155 133.45 644.891 133.173 644.561 132.982C644.232 132.792 643.877 132.696 643.495 132.696C643.114 132.696 642.759 132.792 642.429 132.982C642.1 133.164 641.831 133.437 641.623 133.801C641.424 134.157 641.324 134.581 641.324 135.075C641.324 135.569 641.424 136.003 641.623 136.375C641.831 136.748 642.1 137.034 642.429 137.233C642.767 137.424 643.123 137.519 643.495 137.519C643.877 137.519 644.232 137.424 644.561 137.233C644.891 137.043 645.155 136.765 645.354 136.401C645.562 136.029 645.666 135.595 645.666 135.101Z" fill="#FAFAFA" fill-opacity="0.7"/>
<rect x="440" y="99" width="158" height="3" fill="#0071CC"/>
<rect x="586.39" y="87.6895" width="24" height="24" rx="12" fill="#0071CC"/>
<rect x="586.39" y="87.6895" width="24" height="24" rx="12" stroke="#8191AB"/>
<path d="M595.364 103.408C595.659 103.174 595.793 103.066 595.767 103.083C596.617 102.381 597.284 101.805 597.769 101.354C598.263 100.904 598.679 100.431 599.017 99.9375C599.355 99.4435 599.524 98.9625 599.524 98.4945C599.524 98.1391 599.442 97.8618 599.277 97.6625C599.113 97.4631 598.866 97.3635 598.536 97.3635C598.207 97.3635 597.947 97.4891 597.756 97.7405C597.574 97.9831 597.483 98.3298 597.483 98.7805H595.338C595.356 98.0438 595.512 97.4285 595.806 96.9345C596.11 96.4405 596.504 96.0765 596.989 95.8425C597.483 95.6085 598.029 95.4915 598.627 95.4915C599.659 95.4915 600.434 95.7558 600.954 96.2845C601.483 96.8131 601.747 97.5021 601.747 98.3515C601.747 99.2788 601.431 100.141 600.798 100.938C600.166 101.727 599.36 102.498 598.38 103.252H601.89V105.059H595.364V103.408Z" fill="#8191AB"/>
<path d="M734.298 132.345C734.298 132.805 734.189 133.238 733.973 133.645C733.756 134.053 733.409 134.386 732.933 134.646C732.456 134.898 731.845 135.023 731.1 135.023H729.462V138.689H727.98V129.654H731.1C731.793 129.654 732.378 129.776 732.855 130.018C733.34 130.252 733.7 130.573 733.934 130.98C734.176 131.388 734.298 131.843 734.298 132.345ZM731.1 133.814C731.663 133.814 732.083 133.689 732.361 133.437C732.638 133.177 732.777 132.813 732.777 132.345C732.777 131.357 732.218 130.863 731.1 130.863H729.462V133.814H731.1ZM742.276 134.932C742.276 135.201 742.259 135.444 742.224 135.66H736.751C736.794 136.232 737.007 136.692 737.388 137.038C737.769 137.385 738.237 137.558 738.792 137.558C739.589 137.558 740.153 137.225 740.482 136.557H742.081C741.864 137.216 741.47 137.758 740.898 138.182C740.335 138.598 739.633 138.806 738.792 138.806C738.107 138.806 737.492 138.655 736.946 138.351C736.409 138.039 735.984 137.606 735.672 137.051C735.369 136.488 735.217 135.838 735.217 135.101C735.217 134.365 735.364 133.719 735.659 133.164C735.962 132.601 736.383 132.168 736.92 131.864C737.466 131.561 738.09 131.409 738.792 131.409C739.468 131.409 740.07 131.557 740.599 131.851C741.128 132.146 741.539 132.562 741.834 133.099C742.129 133.628 742.276 134.239 742.276 134.932ZM740.729 134.464C740.72 133.918 740.525 133.481 740.144 133.151C739.763 132.822 739.29 132.657 738.727 132.657C738.216 132.657 737.778 132.822 737.414 133.151C737.05 133.472 736.833 133.91 736.764 134.464H740.729ZM752.406 131.409C752.969 131.409 753.472 131.526 753.914 131.76C754.364 131.994 754.715 132.341 754.967 132.8C755.227 133.26 755.357 133.814 755.357 134.464V138.689H753.888V134.685C753.888 134.044 753.727 133.554 753.407 133.216C753.086 132.87 752.648 132.696 752.094 132.696C751.539 132.696 751.097 132.87 750.768 133.216C750.447 133.554 750.287 134.044 750.287 134.685V138.689H748.818V134.685C748.818 134.044 748.657 133.554 748.337 133.216C748.016 132.87 747.578 132.696 747.024 132.696C746.469 132.696 746.027 132.87 745.698 133.216C745.377 133.554 745.217 134.044 745.217 134.685V138.689H743.735V131.526H745.217V132.345C745.459 132.051 745.767 131.821 746.14 131.656C746.512 131.492 746.911 131.409 747.336 131.409C747.908 131.409 748.419 131.531 748.87 131.773C749.32 132.016 749.667 132.367 749.91 132.826C750.126 132.393 750.464 132.051 750.924 131.799C751.383 131.539 751.877 131.409 752.406 131.409ZM758.724 132.592C758.976 132.246 759.318 131.964 759.751 131.747C760.193 131.522 760.683 131.409 761.22 131.409C761.853 131.409 762.425 131.561 762.936 131.864C763.448 132.168 763.851 132.601 764.145 133.164C764.44 133.719 764.587 134.356 764.587 135.075C764.587 135.795 764.44 136.44 764.145 137.012C763.851 137.576 763.443 138.018 762.923 138.338C762.412 138.65 761.844 138.806 761.22 138.806C760.666 138.806 760.172 138.698 759.738 138.481C759.314 138.265 758.976 137.987 758.724 137.649V138.689H757.242V129.069H758.724V132.592ZM763.079 135.075C763.079 134.581 762.975 134.157 762.767 133.801C762.568 133.437 762.299 133.164 761.961 132.982C761.632 132.792 761.277 132.696 760.895 132.696C760.523 132.696 760.167 132.792 759.829 132.982C759.5 133.173 759.231 133.45 759.023 133.814C758.824 134.178 758.724 134.607 758.724 135.101C758.724 135.595 758.824 136.029 759.023 136.401C759.231 136.765 759.5 137.043 759.829 137.233C760.167 137.424 760.523 137.519 760.895 137.519C761.277 137.519 761.632 137.424 761.961 137.233C762.299 137.034 762.568 136.748 762.767 136.375C762.975 136.003 763.079 135.569 763.079 135.075ZM765.559 135.075C765.559 134.356 765.706 133.719 766.001 133.164C766.304 132.61 766.712 132.181 767.223 131.877C767.743 131.565 768.315 131.409 768.939 131.409C769.502 131.409 769.992 131.522 770.408 131.747C770.833 131.964 771.171 132.237 771.422 132.566V131.526H772.917V138.689H771.422V137.623C771.171 137.961 770.828 138.243 770.395 138.468C769.962 138.694 769.468 138.806 768.913 138.806C768.298 138.806 767.734 138.65 767.223 138.338C766.712 138.018 766.304 137.576 766.001 137.012C765.706 136.44 765.559 135.795 765.559 135.075ZM771.422 135.101C771.422 134.607 771.318 134.178 771.11 133.814C770.911 133.45 770.646 133.173 770.317 132.982C769.988 132.792 769.632 132.696 769.251 132.696C768.87 132.696 768.514 132.792 768.185 132.982C767.856 133.164 767.587 133.437 767.379 133.801C767.18 134.157 767.08 134.581 767.08 135.075C767.08 135.569 767.18 136.003 767.379 136.375C767.587 136.748 767.856 137.034 768.185 137.233C768.523 137.424 768.878 137.519 769.251 137.519C769.632 137.519 769.988 137.424 770.317 137.233C770.646 137.043 770.911 136.765 771.11 136.401C771.318 136.029 771.422 135.595 771.422 135.101ZM781.311 131.526L776.917 142.056H775.383L776.839 138.572L774.018 131.526H775.669L777.684 136.986L779.777 131.526H781.311ZM781.936 135.075C781.936 134.356 782.083 133.719 782.378 133.164C782.681 132.61 783.089 132.181 783.6 131.877C784.12 131.565 784.692 131.409 785.316 131.409C785.879 131.409 786.369 131.522 786.785 131.747C787.21 131.964 787.548 132.237 787.799 132.566V131.526H789.294V138.689H787.799V137.623C787.548 137.961 787.205 138.243 786.772 138.468C786.339 138.694 785.845 138.806 785.29 138.806C784.675 138.806 784.111 138.65 783.6 138.338C783.089 138.018 782.681 137.576 782.378 137.012C782.083 136.44 781.936 135.795 781.936 135.075ZM787.799 135.101C787.799 134.607 787.695 134.178 787.487 133.814C787.288 133.45 787.023 133.173 786.694 132.982C786.365 132.792 786.009 132.696 785.628 132.696C785.247 132.696 784.891 132.792 784.562 132.982C784.233 133.164 783.964 133.437 783.756 133.801C783.557 134.157 783.457 134.581 783.457 135.075C783.457 135.569 783.557 136.003 783.756 136.375C783.964 136.748 784.233 137.034 784.562 137.233C784.9 137.424 785.255 137.519 785.628 137.519C786.009 137.519 786.365 137.424 786.694 137.233C787.023 137.043 787.288 136.765 787.487 136.401C787.695 136.029 787.799 135.595 787.799 135.101ZM792.722 132.566C792.939 132.202 793.225 131.921 793.58 131.721C793.944 131.513 794.373 131.409 794.867 131.409V132.943H794.49C793.91 132.943 793.468 133.091 793.164 133.385C792.87 133.68 792.722 134.191 792.722 134.919V138.689H791.24V131.526H792.722V132.566ZM795.736 135.075C795.736 134.356 795.883 133.719 796.178 133.164C796.481 132.61 796.888 132.181 797.4 131.877C797.92 131.565 798.492 131.409 799.116 131.409C799.679 131.409 800.169 131.522 800.585 131.747C801.009 131.964 801.347 132.237 801.599 132.566V131.526H803.094V138.689H801.599V137.623C801.347 137.961 801.005 138.243 800.572 138.468C800.138 138.694 799.644 138.806 799.09 138.806C798.474 138.806 797.911 138.65 797.4 138.338C796.888 138.018 796.481 137.576 796.178 137.012C795.883 136.44 795.736 135.795 795.736 135.075ZM801.599 135.101C801.599 134.607 801.495 134.178 801.287 133.814C801.087 133.45 800.823 133.173 800.494 132.982C800.164 132.792 799.809 132.696 799.428 132.696C799.046 132.696 798.691 132.792 798.362 132.982C798.032 133.164 797.764 133.437 797.556 133.801C797.356 134.157 797.257 134.581 797.257 135.075C797.257 135.569 797.356 136.003 797.556 136.375C797.764 136.748 798.032 137.034 798.362 137.233C798.7 137.424 799.055 137.519 799.428 137.519C799.809 137.519 800.164 137.424 800.494 137.233C800.823 137.043 801.087 136.765 801.287 136.401C801.495 136.029 801.599 135.595 801.599 135.101ZM808.654 131.409C809.218 131.409 809.72 131.526 810.162 131.76C810.613 131.994 810.964 132.341 811.215 132.8C811.467 133.26 811.592 133.814 811.592 134.464V138.689H810.123V134.685C810.123 134.044 809.963 133.554 809.642 133.216C809.322 132.87 808.884 132.696 808.329 132.696C807.775 132.696 807.333 132.87 807.003 133.216C806.683 133.554 806.522 134.044 806.522 134.685V138.689H805.04V131.526H806.522V132.345C806.765 132.051 807.073 131.821 807.445 131.656C807.827 131.492 808.23 131.409 808.654 131.409Z" fill="#FAFAFA" fill-opacity="0.7"/>
<rect x="610" y="99" width="159" height="3" fill="#CFD8DC"/>
<rect x="757.58" y="87.6895" width="24" height="24" rx="12" fill="#E4E5E5"/>
<rect x="757.58" y="87.6895" width="24" height="24" rx="12" stroke="#8191AB"/>
<path d="M766.494 98.3775C766.528 97.4501 766.832 96.7351 767.404 96.2325C767.976 95.7298 768.751 95.4785 769.731 95.4785C770.381 95.4785 770.935 95.5911 771.395 95.8165C771.863 96.0418 772.214 96.3495 772.448 96.7395C772.69 97.1295 772.812 97.5671 772.812 98.0525C772.812 98.6245 772.669 99.0925 772.383 99.4565C772.097 99.8118 771.763 100.054 771.382 100.184V100.236C771.876 100.401 772.266 100.674 772.552 101.055C772.838 101.437 772.981 101.926 772.981 102.524C772.981 103.062 772.855 103.538 772.604 103.954C772.361 104.362 772.001 104.682 771.525 104.916C771.057 105.15 770.498 105.267 769.848 105.267C768.808 105.267 767.976 105.012 767.352 104.5C766.736 103.989 766.411 103.218 766.377 102.186H768.535C768.543 102.568 768.652 102.871 768.86 103.096C769.068 103.313 769.371 103.421 769.77 103.421C770.108 103.421 770.368 103.326 770.55 103.135C770.74 102.936 770.836 102.676 770.836 102.355C770.836 101.939 770.701 101.64 770.433 101.458C770.173 101.268 769.752 101.172 769.172 101.172H768.756V99.3655H769.172C769.614 99.3655 769.969 99.2918 770.238 99.1445C770.515 98.9885 770.654 98.7155 770.654 98.3255C770.654 98.0135 770.567 97.7708 770.394 97.5975C770.22 97.4241 769.982 97.3375 769.679 97.3375C769.349 97.3375 769.102 97.4371 768.938 97.6365C768.782 97.8358 768.691 98.0828 768.665 98.3775H766.494Z" fill="#8191AB"/>
<path d="M900.379 130.85V133.502H903.499V134.711H900.379V137.48H903.889V138.689H898.897V129.641H903.889V130.85H900.379ZM911.213 133.359V134.607H905.87V133.359H911.213ZM919.156 129.654V130.863H916.751V138.689H915.269V130.863H912.851V129.654H919.156ZM921.411 130.577C921.142 130.577 920.917 130.486 920.735 130.304C920.553 130.122 920.462 129.897 920.462 129.628C920.462 129.36 920.553 129.134 920.735 128.952C920.917 128.77 921.142 128.679 921.411 128.679C921.671 128.679 921.892 128.77 922.074 128.952C922.256 129.134 922.347 129.36 922.347 129.628C922.347 129.897 922.256 130.122 922.074 130.304C921.892 130.486 921.671 130.577 921.411 130.577ZM922.139 131.526V138.689H920.657V131.526H922.139ZM926.919 135.114L930.221 138.689H928.219L925.567 135.608V138.689H924.085V129.069H925.567V134.659L928.167 131.526H930.221L926.919 135.114ZM937.848 134.932C937.848 135.201 937.83 135.444 937.796 135.66H932.323C932.366 136.232 932.578 136.692 932.96 137.038C933.341 137.385 933.809 137.558 934.364 137.558C935.161 137.558 935.724 137.225 936.054 136.557H937.653C937.436 137.216 937.042 137.758 936.47 138.182C935.906 138.598 935.204 138.806 934.364 138.806C933.679 138.806 933.064 138.655 932.518 138.351C931.98 138.039 931.556 137.606 931.244 137.051C930.94 136.488 930.789 135.838 930.789 135.101C930.789 134.365 930.936 133.719 931.231 133.164C931.534 132.601 931.954 132.168 932.492 131.864C933.038 131.561 933.662 131.409 934.364 131.409C935.04 131.409 935.642 131.557 936.171 131.851C936.699 132.146 937.111 132.562 937.406 133.099C937.7 133.628 937.848 134.239 937.848 134.932ZM936.301 134.464C936.292 133.918 936.097 133.481 935.716 133.151C935.334 132.822 934.862 132.657 934.299 132.657C933.787 132.657 933.35 132.822 932.986 133.151C932.622 133.472 932.405 133.91 932.336 134.464H936.301ZM941.035 132.735V136.7C941.035 136.969 941.096 137.164 941.217 137.285C941.347 137.398 941.564 137.454 941.867 137.454H942.777V138.689H941.607C940.94 138.689 940.429 138.533 940.073 138.221C939.718 137.909 939.54 137.402 939.54 136.7V132.735H938.695V131.526H939.54V129.745H941.035V131.526H942.777V132.735H941.035ZM953.357 129.654V130.863H950.952V138.689H949.47V130.863H947.052V129.654H953.357ZM961.423 134.932C961.423 135.201 961.406 135.444 961.371 135.66H955.898C955.941 136.232 956.154 136.692 956.535 137.038C956.916 137.385 957.384 137.558 957.939 137.558C958.736 137.558 959.3 137.225 959.629 136.557H961.228C961.011 137.216 960.617 137.758 960.045 138.182C959.482 138.598 958.78 138.806 957.939 138.806C957.254 138.806 956.639 138.655 956.093 138.351C955.556 138.039 955.131 137.606 954.819 137.051C954.516 136.488 954.364 135.838 954.364 135.101C954.364 134.365 954.511 133.719 954.806 133.164C955.109 132.601 955.53 132.168 956.067 131.864C956.613 131.561 957.237 131.409 957.939 131.409C958.615 131.409 959.217 131.557 959.746 131.851C960.275 132.146 960.686 132.562 960.981 133.099C961.276 133.628 961.423 134.239 961.423 134.932ZM959.876 134.464C959.867 133.918 959.672 133.481 959.291 133.151C958.91 132.822 958.437 132.657 957.874 132.657C957.363 132.657 956.925 132.822 956.561 133.151C956.197 133.472 955.98 133.91 955.911 134.464H959.876ZM964.363 132.566C964.58 132.202 964.866 131.921 965.221 131.721C965.585 131.513 966.014 131.409 966.508 131.409V132.943H966.131C965.551 132.943 965.109 133.091 964.805 133.385C964.511 133.68 964.363 134.191 964.363 134.919V138.689H962.881V131.526H964.363V132.566ZM969.353 132.592C969.604 132.246 969.946 131.964 970.38 131.747C970.822 131.522 971.311 131.409 971.849 131.409C972.481 131.409 973.053 131.561 973.565 131.864C974.076 132.168 974.479 132.601 974.774 133.164C975.068 133.719 975.216 134.356 975.216 135.075C975.216 135.795 975.068 136.44 974.774 137.012C974.479 137.576 974.072 138.018 973.552 138.338C973.04 138.65 972.473 138.806 971.849 138.806C971.294 138.806 970.8 138.698 970.367 138.481C969.942 138.265 969.604 137.987 969.353 137.649V138.689H967.871V129.069H969.353V132.592ZM973.708 135.075C973.708 134.581 973.604 134.157 973.396 133.801C973.196 133.437 972.928 133.164 972.59 132.982C972.26 132.792 971.905 132.696 971.524 132.696C971.151 132.696 970.796 132.792 970.458 132.982C970.128 133.173 969.86 133.45 969.652 133.814C969.452 134.178 969.353 134.607 969.353 135.101C969.353 135.595 969.452 136.029 969.652 136.401C969.86 136.765 970.128 137.043 970.458 137.233C970.796 137.424 971.151 137.519 971.524 137.519C971.905 137.519 972.26 137.424 972.59 137.233C972.928 137.034 973.196 136.748 973.396 136.375C973.604 136.003 973.708 135.569 973.708 135.075ZM977.435 130.577C977.167 130.577 976.941 130.486 976.759 130.304C976.577 130.122 976.486 129.897 976.486 129.628C976.486 129.36 976.577 129.134 976.759 128.952C976.941 128.77 977.167 128.679 977.435 128.679C977.695 128.679 977.916 128.77 978.098 128.952C978.28 129.134 978.371 129.36 978.371 129.628C978.371 129.897 978.28 130.122 978.098 130.304C977.916 130.486 977.695 130.577 977.435 130.577ZM978.163 131.526V138.689H976.681V131.526H978.163ZM981.838 132.735V136.7C981.838 136.969 981.899 137.164 982.02 137.285C982.15 137.398 982.367 137.454 982.67 137.454H983.58V138.689H982.41C981.743 138.689 981.231 138.533 980.876 138.221C980.521 137.909 980.343 137.402 980.343 136.7V132.735H979.498V131.526H980.343V129.745H981.838V131.526H983.58V132.735H981.838Z" fill="#FAFAFA" fill-opacity="0.7"/>
<rect x="769.59" y="99.1895" width="171.19" height="3" fill="#CFD8DC"/>
<rect x="928.78" y="87.6895" width="24" height="24" rx="12" fill="#E4E5E5"/>
<rect x="928.78" y="87.6895" width="24" height="24" rx="12" stroke="#8191AB"/>
<path d="M937.221 103.499V101.705L941.329 95.8295H943.812V101.575H944.878V103.499H943.812V105.189H941.589V103.499H937.221ZM941.745 98.2735L939.561 101.575H941.745V98.2735Z" fill="#8191AB"/>
<defs>
<clipPath id="clip0_200_2436">
<rect width="1440" height="155.19" fill="white"/>
</clipPath>
<clipPath id="clip1_200_2436">
<rect width="1440" height="560" fill="white" transform="translate(0 -202.404)"/>
</clipPath>
</defs>
</svg>
