<svg width="31" height="25" viewBox="0 0 31 25" fill="none" xmlns="http://www.w3.org/2000/svg">
<g clip-path="url(#clip0_63_163)">
<path d="M25.53 6.38989C26.155 6.38989 26.6863 6.60864 27.1238 7.04614C27.5613 7.48364 27.78 8.01489 27.78 8.63989V20.6399C27.78 21.2649 27.5613 21.7961 27.1238 22.2336C26.6863 22.6711 26.155 22.8899 25.53 22.8899H6.03003C5.40503 22.8899 4.87378 22.6711 4.43628 22.2336C3.99878 21.7961 3.78003 21.2649 3.78003 20.6399V8.63989C3.78003 8.01489 3.99878 7.48364 4.43628 7.04614C4.87378 6.60864 5.40503 6.38989 6.03003 6.38989H11.28V4.13989C11.28 3.51489 11.4988 2.98364 11.9363 2.54614C12.3738 2.10864 12.905 1.88989 13.53 1.88989H18.03C18.655 1.88989 19.1863 2.10864 19.6238 2.54614C20.0613 2.98364 20.28 3.51489 20.28 4.13989V6.38989H25.53ZM12.78 4.13989V6.38989H18.78V4.13989C18.78 3.92114 18.7097 3.74146 18.5691 3.60083C18.4285 3.46021 18.2488 3.38989 18.03 3.38989H13.53C13.3113 3.38989 13.1316 3.46021 12.991 3.60083C12.8503 3.74146 12.78 3.92114 12.78 4.13989ZM8.28003 21.3899V7.88989H6.03003C5.81128 7.88989 5.63159 7.96021 5.49097 8.10083C5.35034 8.24146 5.28003 8.42114 5.28003 8.63989V20.6399C5.28003 20.8586 5.35034 21.0383 5.49097 21.179C5.63159 21.3196 5.81128 21.3899 6.03003 21.3899H8.28003ZM21.78 21.3899V7.88989H9.78003V21.3899H21.78ZM26.28 20.6399V8.63989C26.28 8.42114 26.2097 8.24146 26.0691 8.10083C25.9285 7.96021 25.7488 7.88989 25.53 7.88989H23.28V21.3899H25.53C25.7488 21.3899 25.9285 21.3196 26.0691 21.179C26.2097 21.0383 26.28 20.8586 26.28 20.6399Z" fill="#212529"/>
</g>
<path d="M10.4431 16.7847C10.6607 16.6119 10.7599 16.5319 10.7407 16.5447C11.3679 16.0263 11.8607 15.6007 12.2191 15.2679C12.5839 14.9351 12.8911 14.5863 13.1407 14.2215C13.3903 13.8567 13.5151 13.5015 13.5151 13.1559C13.5151 12.8935 13.4543 12.6887 13.3327 12.5415C13.2111 12.3943 13.0287 12.3207 12.7855 12.3207C12.5423 12.3207 12.3503 12.4135 12.2095 12.5991C12.0751 12.7783 12.0079 13.0343 12.0079 13.3671H10.4239C10.4367 12.8231 10.5519 12.3687 10.7695 12.0039C10.9935 11.6391 11.2847 11.3703 11.6431 11.1975C12.0079 11.0247 12.4111 10.9383 12.8527 10.9383C13.6143 10.9383 14.1871 11.1335 14.5711 11.5239C14.9615 11.9143 15.1567 12.4231 15.1567 13.0503C15.1567 13.7351 14.9231 14.3719 14.4559 14.9607C13.9887 15.5431 13.3935 16.1127 12.6703 16.6695H15.2623V18.0039H10.4431V16.7847ZM15.985 14.4999C15.985 13.3991 16.1962 12.5319 16.6186 11.8983C17.0474 11.2647 17.7354 10.9479 18.6826 10.9479C19.6298 10.9479 20.3146 11.2647 20.737 11.8983C21.1658 12.5319 21.3802 13.3991 21.3802 14.4999C21.3802 15.6135 21.1658 16.4871 20.737 17.1207C20.3146 17.7543 19.6298 18.0711 18.6826 18.0711C17.7354 18.0711 17.0474 17.7543 16.6186 17.1207C16.1962 16.4871 15.985 15.6135 15.985 14.4999ZM19.7674 14.4999C19.7674 13.8535 19.697 13.3575 19.5562 13.0119C19.4154 12.6599 19.1242 12.4839 18.6826 12.4839C18.241 12.4839 17.9498 12.6599 17.809 13.0119C17.6682 13.3575 17.5978 13.8535 17.5978 14.4999C17.5978 14.9351 17.6234 15.2967 17.6746 15.5847C17.7258 15.8663 17.8282 16.0967 17.9818 16.2759C18.1418 16.4487 18.3754 16.5351 18.6826 16.5351C18.9898 16.5351 19.2202 16.4487 19.3738 16.2759C19.5338 16.0967 19.6394 15.8663 19.6906 15.5847C19.7418 15.2967 19.7674 14.9351 19.7674 14.4999Z" fill="#212529"/>
<defs>
<clipPath id="clip0_63_163">
<rect width="24" height="24" fill="white" transform="matrix(1 0 0 -1 3.78003 24.3899)"/>
</clipPath>
</defs>
</svg>
