<svg width="1375" height="156" viewBox="0 0 1375 156" fill="none" xmlns="http://www.w3.org/2000/svg">
<rect width="1376" height="155.19" transform="translate(0.925171 0.537354)" fill="#0C2F55"/>
<g clip-path="url(#clip0_63_5)">
<g clip-path="url(#clip1_63_5)">
<mask id="mask0_63_5" style="mask-type:luminance" maskUnits="userSpaceOnUse" x="0" y="-202" width="1441" height="561">
<path d="M1440.93 -201.868H0.925171V358.132H1440.93V-201.868Z" fill="white"/>
</mask>
<g mask="url(#mask0_63_5)">
<path d="M1440.93 -201.868H0.925171V358.132H1440.93V-201.868Z" fill="#003A68"/>
<path d="M0.925171 307.835C97.5862 305.916 185.11 263.014 270.256 217.219C361.815 167.975 467.215 125.31 513.432 32.1862C560.01 -61.6658 536.799 -173.304 514.922 -275.77C494.192 -372.866 454.905 -463.894 391.25 -540.087C326.774 -617.263 244.822 -676.502 150.651 -711.789C51.4162 -748.974 -53.9788 -761.008 -158.918 -746.242C-276.249 -729.732 -402.308 -707.842 -484.426 -622.427C-567.767 -535.739 -599.959 -408.418 -599.308 -288.168C-598.703 -176.429 -540.352 -76.4478 -480.958 18.2012C-427.831 102.862 -361.034 176.561 -275.367 228.051C-191.507 278.455 -96.8978 309.777 0.925171 307.835Z" fill="#002E53"/>
<path d="M1440.93 944.955C1567.92 954.154 1705.87 1005.78 1815.13 940.409C1924.72 874.841 1962.12 734.952 1997.14 612.146C2028.4 502.511 2037.58 386.166 2004.27 277.135C1973.61 176.761 1893.63 104.377 1819.37 30.2101C1750.1 -38.9669 1680.46 -110.254 1587.06 -139.557C1492.71 -169.157 1393.59 -152.432 1296.47 -133.834C1190.17 -113.477 1083.23 -91.9319 996.971 -26.5559C898.025 48.4341 796.114 140.08 773.889 262.227C751.497 385.291 822.633 503.168 880.398 614.116C935.629 720.198 997.014 827.813 1100.01 888.605C1201.25 948.361 1323.67 936.461 1440.93 944.955Z" fill="#00467D"/>
</g>
</g>
</g>
<path d="M402.079 134.69C402.079 133.806 402.283 133.013 402.69 132.311C403.106 131.609 403.665 131.063 404.367 130.673C405.078 130.275 405.853 130.075 406.694 130.075C407.656 130.075 408.51 130.314 409.255 130.79C410.009 131.258 410.555 131.926 410.893 132.792H409.112C408.878 132.316 408.553 131.96 408.137 131.726C407.721 131.492 407.24 131.375 406.694 131.375C406.096 131.375 405.563 131.51 405.095 131.778C404.627 132.047 404.259 132.433 403.99 132.935C403.73 133.438 403.6 134.023 403.6 134.69C403.6 135.358 403.73 135.943 403.99 136.445C404.259 136.948 404.627 137.338 405.095 137.615C405.563 137.884 406.096 138.018 406.694 138.018C407.24 138.018 407.721 137.901 408.137 137.667C408.553 137.433 408.878 137.078 409.112 136.601H410.893C410.555 137.468 410.009 138.135 409.255 138.603C408.51 139.071 407.656 139.305 406.694 139.305C405.845 139.305 405.069 139.11 404.367 138.72C403.665 138.322 403.106 137.771 402.69 137.069C402.283 136.367 402.079 135.574 402.079 134.69ZM412.134 135.613C412.134 134.894 412.281 134.257 412.576 133.702C412.879 133.148 413.286 132.719 413.798 132.415C414.318 132.103 414.89 131.947 415.514 131.947C416.077 131.947 416.567 132.06 416.983 132.285C417.407 132.502 417.745 132.775 417.997 133.104V132.064H419.492V139.227H417.997V138.161C417.745 138.499 417.403 138.781 416.97 139.006C416.536 139.232 416.042 139.344 415.488 139.344C414.872 139.344 414.309 139.188 413.798 138.876C413.286 138.556 412.879 138.114 412.576 137.55C412.281 136.978 412.134 136.333 412.134 135.613ZM417.997 135.639C417.997 135.145 417.893 134.716 417.685 134.352C417.485 133.988 417.221 133.711 416.892 133.52C416.562 133.33 416.207 133.234 415.826 133.234C415.444 133.234 415.089 133.33 414.76 133.52C414.43 133.702 414.162 133.975 413.954 134.339C413.754 134.695 413.655 135.119 413.655 135.613C413.655 136.107 413.754 136.541 413.954 136.913C414.162 137.286 414.43 137.572 414.76 137.771C415.098 137.962 415.453 138.057 415.826 138.057C416.207 138.057 416.562 137.962 416.892 137.771C417.221 137.581 417.485 137.303 417.685 136.939C417.893 136.567 417.997 136.133 417.997 135.639ZM422.92 133.104C423.137 132.74 423.423 132.459 423.778 132.259C424.142 132.051 424.571 131.947 425.065 131.947V133.481H424.688C424.108 133.481 423.666 133.629 423.362 133.923C423.068 134.218 422.92 134.729 422.92 135.457V139.227H421.438V132.064H422.92V133.104ZM427.181 131.115C426.913 131.115 426.687 131.024 426.505 130.842C426.323 130.66 426.232 130.435 426.232 130.166C426.232 129.898 426.323 129.672 426.505 129.49C426.687 129.308 426.913 129.217 427.181 129.217C427.441 129.217 427.662 129.308 427.844 129.49C428.026 129.672 428.117 129.898 428.117 130.166C428.117 130.435 428.026 130.66 427.844 130.842C427.662 131.024 427.441 131.115 427.181 131.115ZM427.909 132.064V139.227H426.427V132.064H427.909ZM439.069 130.192V131.401H436.664V139.227H435.182V131.401H432.764V130.192H439.069ZM441.324 131.115C441.055 131.115 440.83 131.024 440.648 130.842C440.466 130.66 440.375 130.435 440.375 130.166C440.375 129.898 440.466 129.672 440.648 129.49C440.83 129.308 441.055 129.217 441.324 129.217C441.584 129.217 441.805 129.308 441.987 129.49C442.169 129.672 442.26 129.898 442.26 130.166C442.26 130.435 442.169 130.66 441.987 130.842C441.805 131.024 441.584 131.115 441.324 131.115ZM442.052 132.064V139.227H440.57V132.064H442.052ZM446.832 135.652L450.134 139.227H448.132L445.48 136.146V139.227H443.998V129.607H445.48V135.197L448.08 132.064H450.134L446.832 135.652ZM457.761 135.47C457.761 135.739 457.744 135.982 457.709 136.198H452.236C452.279 136.77 452.492 137.23 452.873 137.576C453.254 137.923 453.722 138.096 454.277 138.096C455.074 138.096 455.638 137.763 455.967 137.095H457.566C457.349 137.754 456.955 138.296 456.383 138.72C455.82 139.136 455.118 139.344 454.277 139.344C453.592 139.344 452.977 139.193 452.431 138.889C451.894 138.577 451.469 138.144 451.157 137.589C450.854 137.026 450.702 136.376 450.702 135.639C450.702 134.903 450.849 134.257 451.144 133.702C451.447 133.139 451.868 132.706 452.405 132.402C452.951 132.099 453.575 131.947 454.277 131.947C454.953 131.947 455.555 132.095 456.084 132.389C456.613 132.684 457.024 133.1 457.319 133.637C457.614 134.166 457.761 134.777 457.761 135.47ZM456.214 135.002C456.205 134.456 456.01 134.019 455.629 133.689C455.248 133.36 454.775 133.195 454.212 133.195C453.701 133.195 453.263 133.36 452.899 133.689C452.535 134.01 452.318 134.448 452.249 135.002H456.214ZM460.948 133.273V137.238C460.948 137.507 461.009 137.702 461.13 137.823C461.26 137.936 461.477 137.992 461.78 137.992H462.69V139.227H461.52C460.853 139.227 460.342 139.071 459.986 138.759C459.631 138.447 459.453 137.94 459.453 137.238V133.273H458.608V132.064H459.453V130.283H460.948V132.064H462.69V133.273H460.948Z" fill="white"/>
<rect x="420.145" y="88.2273" width="24" height="24" rx="12" fill="#0071CC"/>
<rect x="420.145" y="88.2273" width="24" height="24" rx="12" stroke="white"/>
<path d="M430.245 98.3043V96.2373H433.846V105.727H431.532V98.3043H430.245Z" fill="white"/>
<path d="M561.239 132.883C561.239 133.343 561.13 133.776 560.914 134.183C560.697 134.591 560.35 134.924 559.874 135.184C559.397 135.436 558.786 135.561 558.041 135.561H556.403V139.227H554.921V130.192H558.041C558.734 130.192 559.319 130.314 559.796 130.556C560.281 130.79 560.641 131.111 560.875 131.518C561.117 131.926 561.239 132.381 561.239 132.883ZM558.041 134.352C558.604 134.352 559.024 134.227 559.302 133.975C559.579 133.715 559.718 133.351 559.718 132.883C559.718 131.895 559.159 131.401 558.041 131.401H556.403V134.352H558.041ZM569.217 135.47C569.217 135.739 569.2 135.982 569.165 136.198H563.692C563.735 136.77 563.948 137.23 564.329 137.576C564.71 137.923 565.178 138.096 565.733 138.096C566.53 138.096 567.094 137.763 567.423 137.095H569.022C568.805 137.754 568.411 138.296 567.839 138.72C567.276 139.136 566.574 139.344 565.733 139.344C565.048 139.344 564.433 139.193 563.887 138.889C563.35 138.577 562.925 138.144 562.613 137.589C562.31 137.026 562.158 136.376 562.158 135.639C562.158 134.903 562.305 134.257 562.6 133.702C562.903 133.139 563.324 132.706 563.861 132.402C564.407 132.099 565.031 131.947 565.733 131.947C566.409 131.947 567.011 132.095 567.54 132.389C568.069 132.684 568.48 133.1 568.775 133.637C569.07 134.166 569.217 134.777 569.217 135.47ZM567.67 135.002C567.661 134.456 567.466 134.019 567.085 133.689C566.704 133.36 566.231 133.195 565.668 133.195C565.157 133.195 564.719 133.36 564.355 133.689C563.991 134.01 563.774 134.448 563.705 135.002H567.67ZM574.29 131.947C574.853 131.947 575.356 132.064 575.798 132.298C576.248 132.532 576.599 132.879 576.851 133.338C577.102 133.798 577.228 134.352 577.228 135.002V139.227H575.759V135.223C575.759 134.582 575.598 134.092 575.278 133.754C574.957 133.408 574.519 133.234 573.965 133.234C573.41 133.234 572.968 133.408 572.639 133.754C572.318 134.092 572.158 134.582 572.158 135.223V139.227H570.676V132.064H572.158V132.883C572.4 132.589 572.708 132.359 573.081 132.194C573.462 132.03 573.865 131.947 574.29 131.947ZM582.004 131.947C582.559 131.947 583.048 132.06 583.473 132.285C583.906 132.502 584.244 132.775 584.487 133.104V132.064H585.982V139.344C585.982 140.003 585.843 140.588 585.566 141.099C585.289 141.619 584.886 142.027 584.357 142.321C583.837 142.616 583.213 142.763 582.485 142.763C581.514 142.763 580.708 142.534 580.067 142.074C579.426 141.624 579.062 141.008 578.975 140.228H580.444C580.557 140.601 580.795 140.9 581.159 141.125C581.532 141.359 581.974 141.476 582.485 141.476C583.083 141.476 583.564 141.294 583.928 140.93C584.301 140.566 584.487 140.038 584.487 139.344V138.148C584.236 138.486 583.893 138.772 583.46 139.006C583.035 139.232 582.55 139.344 582.004 139.344C581.38 139.344 580.808 139.188 580.288 138.876C579.777 138.556 579.369 138.114 579.066 137.55C578.771 136.978 578.624 136.333 578.624 135.613C578.624 134.894 578.771 134.257 579.066 133.702C579.369 133.148 579.777 132.719 580.288 132.415C580.808 132.103 581.38 131.947 582.004 131.947ZM584.487 135.639C584.487 135.145 584.383 134.716 584.175 134.352C583.976 133.988 583.711 133.711 583.382 133.52C583.053 133.33 582.697 133.234 582.316 133.234C581.935 133.234 581.579 133.33 581.25 133.52C580.921 133.702 580.652 133.975 580.444 134.339C580.245 134.695 580.145 135.119 580.145 135.613C580.145 136.107 580.245 136.541 580.444 136.913C580.652 137.286 580.921 137.572 581.25 137.771C581.588 137.962 581.943 138.057 582.316 138.057C582.697 138.057 583.053 137.962 583.382 137.771C583.711 137.581 583.976 137.303 584.175 136.939C584.383 136.567 584.487 136.133 584.487 135.639ZM588.682 131.115C588.414 131.115 588.188 131.024 588.006 130.842C587.824 130.66 587.733 130.435 587.733 130.166C587.733 129.898 587.824 129.672 588.006 129.49C588.188 129.308 588.414 129.217 588.682 129.217C588.942 129.217 589.163 129.308 589.345 129.49C589.527 129.672 589.618 129.898 589.618 130.166C589.618 130.435 589.527 130.66 589.345 130.842C589.163 131.024 588.942 131.115 588.682 131.115ZM589.41 132.064V139.227H587.928V132.064H589.41ZM593.956 139.344C593.393 139.344 592.886 139.245 592.435 139.045C591.993 138.837 591.642 138.56 591.382 138.213C591.122 137.858 590.984 137.464 590.966 137.03H592.5C592.526 137.334 592.669 137.589 592.929 137.797C593.198 137.997 593.532 138.096 593.93 138.096C594.346 138.096 594.667 138.018 594.892 137.862C595.126 137.698 595.243 137.49 595.243 137.238C595.243 136.97 595.113 136.77 594.853 136.64C594.602 136.51 594.199 136.367 593.644 136.211C593.107 136.064 592.669 135.921 592.331 135.782C591.993 135.644 591.699 135.431 591.447 135.145C591.205 134.859 591.083 134.482 591.083 134.014C591.083 133.633 591.196 133.286 591.421 132.974C591.647 132.654 591.967 132.402 592.383 132.22C592.808 132.038 593.293 131.947 593.839 131.947C594.654 131.947 595.308 132.155 595.802 132.571C596.305 132.979 596.574 133.538 596.608 134.248H595.126C595.1 133.928 594.97 133.672 594.736 133.481C594.502 133.291 594.186 133.195 593.787 133.195C593.397 133.195 593.098 133.269 592.89 133.416C592.682 133.564 592.578 133.759 592.578 134.001C592.578 134.192 592.648 134.352 592.786 134.482C592.925 134.612 593.094 134.716 593.293 134.794C593.493 134.864 593.787 134.955 594.177 135.067C594.697 135.206 595.122 135.349 595.451 135.496C595.789 135.635 596.08 135.843 596.322 136.12C596.565 136.398 596.691 136.766 596.699 137.225C596.699 137.633 596.587 137.997 596.361 138.317C596.136 138.638 595.815 138.889 595.399 139.071C594.992 139.253 594.511 139.344 593.956 139.344ZM599.055 131.115C598.786 131.115 598.561 131.024 598.379 130.842C598.197 130.66 598.106 130.435 598.106 130.166C598.106 129.898 598.197 129.672 598.379 129.49C598.561 129.308 598.786 129.217 599.055 129.217C599.315 129.217 599.536 129.308 599.718 129.49C599.9 129.672 599.991 129.898 599.991 130.166C599.991 130.435 599.9 130.66 599.718 130.842C599.536 131.024 599.315 131.115 599.055 131.115ZM599.783 132.064V139.227H598.301V132.064H599.783ZM601.234 135.613C601.234 134.894 601.382 134.257 601.676 133.702C601.98 133.148 602.387 132.719 602.898 132.415C603.418 132.103 603.99 131.947 604.614 131.947C605.178 131.947 605.667 132.06 606.083 132.285C606.508 132.502 606.846 132.775 607.097 133.104V132.064H608.592V139.227H607.097V138.161C606.846 138.499 606.504 138.781 606.07 139.006C605.637 139.232 605.143 139.344 604.588 139.344C603.973 139.344 603.41 139.188 602.898 138.876C602.387 138.556 601.98 138.114 601.676 137.55C601.382 136.978 601.234 136.333 601.234 135.613ZM607.097 135.639C607.097 135.145 606.993 134.716 606.785 134.352C606.586 133.988 606.322 133.711 605.992 133.52C605.663 133.33 605.308 133.234 604.926 133.234C604.545 133.234 604.19 133.33 603.86 133.52C603.531 133.702 603.262 133.975 603.054 134.339C602.855 134.695 602.755 135.119 602.755 135.613C602.755 136.107 602.855 136.541 603.054 136.913C603.262 137.286 603.531 137.572 603.86 137.771C604.198 137.962 604.554 138.057 604.926 138.057C605.308 138.057 605.663 137.962 605.992 137.771C606.322 137.581 606.586 137.303 606.785 136.939C606.993 136.567 607.097 136.133 607.097 135.639ZM614.153 131.947C614.716 131.947 615.219 132.064 615.661 132.298C616.111 132.532 616.462 132.879 616.714 133.338C616.965 133.798 617.091 134.352 617.091 135.002V139.227H615.622V135.223C615.622 134.582 615.461 134.092 615.141 133.754C614.82 133.408 614.382 133.234 613.828 133.234C613.273 133.234 612.831 133.408 612.502 133.754C612.181 134.092 612.021 134.582 612.021 135.223V139.227H610.539V132.064H612.021V132.883C612.263 132.589 612.571 132.359 612.944 132.194C613.325 132.03 613.728 131.947 614.153 131.947ZM625.309 130.192C626.271 130.192 627.112 130.379 627.831 130.751C628.559 131.115 629.118 131.644 629.508 132.337C629.907 133.022 630.106 133.824 630.106 134.742C630.106 135.661 629.907 136.458 629.508 137.134C629.118 137.81 628.559 138.33 627.831 138.694C627.112 139.05 626.271 139.227 625.309 139.227H622.358V130.192H625.309ZM625.309 138.018C626.366 138.018 627.177 137.732 627.74 137.16C628.303 136.588 628.585 135.782 628.585 134.742C628.585 133.694 628.303 132.875 627.74 132.285C627.177 131.696 626.366 131.401 625.309 131.401H623.84V138.018H625.309ZM631.081 135.613C631.081 134.894 631.228 134.257 631.523 133.702C631.826 133.148 632.234 132.719 632.745 132.415C633.265 132.103 633.837 131.947 634.461 131.947C635.024 131.947 635.514 132.06 635.93 132.285C636.355 132.502 636.693 132.775 636.944 133.104V132.064H638.439V139.227H636.944V138.161C636.693 138.499 636.35 138.781 635.917 139.006C635.484 139.232 634.99 139.344 634.435 139.344C633.82 139.344 633.256 139.188 632.745 138.876C632.234 138.556 631.826 138.114 631.523 137.55C631.228 136.978 631.081 136.333 631.081 135.613ZM636.944 135.639C636.944 135.145 636.84 134.716 636.632 134.352C636.433 133.988 636.168 133.711 635.839 133.52C635.51 133.33 635.154 133.234 634.773 133.234C634.392 133.234 634.036 133.33 633.707 133.52C633.378 133.702 633.109 133.975 632.901 134.339C632.702 134.695 632.602 135.119 632.602 135.613C632.602 136.107 632.702 136.541 632.901 136.913C633.109 137.286 633.378 137.572 633.707 137.771C634.045 137.962 634.4 138.057 634.773 138.057C635.154 138.057 635.51 137.962 635.839 137.771C636.168 137.581 636.433 137.303 636.632 136.939C636.84 136.567 636.944 136.133 636.944 135.639ZM642.114 133.273V137.238C642.114 137.507 642.175 137.702 642.296 137.823C642.426 137.936 642.643 137.992 642.946 137.992H643.856V139.227H642.686C642.019 139.227 641.508 139.071 641.152 138.759C640.797 138.447 640.619 137.94 640.619 137.238V133.273H639.774V132.064H640.619V130.283H642.114V132.064H643.856V133.273H642.114ZM644.728 135.613C644.728 134.894 644.876 134.257 645.17 133.702C645.474 133.148 645.881 132.719 646.392 132.415C646.912 132.103 647.484 131.947 648.108 131.947C648.672 131.947 649.161 132.06 649.577 132.285C650.002 132.502 650.34 132.775 650.591 133.104V132.064H652.086V139.227H650.591V138.161C650.34 138.499 649.998 138.781 649.564 139.006C649.131 139.232 648.637 139.344 648.082 139.344C647.467 139.344 646.904 139.188 646.392 138.876C645.881 138.556 645.474 138.114 645.17 137.55C644.876 136.978 644.728 136.333 644.728 135.613ZM650.591 135.639C650.591 135.145 650.487 134.716 650.279 134.352C650.08 133.988 649.816 133.711 649.486 133.52C649.157 133.33 648.802 133.234 648.42 133.234C648.039 133.234 647.684 133.33 647.354 133.52C647.025 133.702 646.756 133.975 646.548 134.339C646.349 134.695 646.249 135.119 646.249 135.613C646.249 136.107 646.349 136.541 646.548 136.913C646.756 137.286 647.025 137.572 647.354 137.771C647.692 137.962 648.048 138.057 648.42 138.057C648.802 138.057 649.157 137.962 649.486 137.771C649.816 137.581 650.08 137.303 650.279 136.939C650.487 136.567 650.591 136.133 650.591 135.639Z" fill="#FAFAFA" fill-opacity="0.7"/>
<rect x="432.145" y="99.7273" width="171.19" height="3" fill="#CFD8DC"/>
<rect x="591.315" y="88.2273" width="24" height="24" rx="12" fill="#E4E5E5"/>
<rect x="591.315" y="88.2273" width="24" height="24" rx="12" stroke="#8191AB"/>
<path d="M600.289 103.946C600.584 103.712 600.718 103.604 600.692 103.621C601.542 102.919 602.209 102.343 602.694 101.892C603.188 101.442 603.604 100.969 603.942 100.475C604.28 99.9813 604.449 99.5003 604.449 99.0323C604.449 98.677 604.367 98.3996 604.202 98.2003C604.038 98.001 603.791 97.9013 603.461 97.9013C603.132 97.9013 602.872 98.027 602.681 98.2783C602.499 98.521 602.408 98.8676 602.408 99.3183H600.263C600.281 98.5816 600.437 97.9663 600.731 97.4723C601.035 96.9783 601.429 96.6143 601.914 96.3803C602.408 96.1463 602.954 96.0293 603.552 96.0293C604.584 96.0293 605.359 96.2936 605.879 96.8223C606.408 97.351 606.672 98.04 606.672 98.8893C606.672 99.8166 606.356 100.679 605.723 101.476C605.091 102.265 604.285 103.036 603.305 103.79H606.815V105.597H600.289V103.946Z" fill="#8191AB"/>
<path d="M739.223 132.883C739.223 133.343 739.114 133.776 738.898 134.183C738.681 134.591 738.334 134.924 737.858 135.184C737.381 135.436 736.77 135.561 736.025 135.561H734.387V139.227H732.905V130.192H736.025C736.718 130.192 737.303 130.314 737.78 130.556C738.265 130.79 738.625 131.111 738.859 131.518C739.101 131.926 739.223 132.381 739.223 132.883ZM736.025 134.352C736.588 134.352 737.008 134.227 737.286 133.975C737.563 133.715 737.702 133.351 737.702 132.883C737.702 131.895 737.143 131.401 736.025 131.401H734.387V134.352H736.025ZM747.201 135.47C747.201 135.739 747.184 135.982 747.149 136.198H741.676C741.719 136.77 741.932 137.23 742.313 137.576C742.694 137.923 743.162 138.096 743.717 138.096C744.514 138.096 745.078 137.763 745.407 137.095H747.006C746.789 137.754 746.395 138.296 745.823 138.72C745.26 139.136 744.558 139.344 743.717 139.344C743.032 139.344 742.417 139.193 741.871 138.889C741.334 138.577 740.909 138.144 740.597 137.589C740.294 137.026 740.142 136.376 740.142 135.639C740.142 134.903 740.289 134.257 740.584 133.702C740.887 133.139 741.308 132.706 741.845 132.402C742.391 132.099 743.015 131.947 743.717 131.947C744.393 131.947 744.995 132.095 745.524 132.389C746.053 132.684 746.464 133.1 746.759 133.637C747.054 134.166 747.201 134.777 747.201 135.47ZM745.654 135.002C745.645 134.456 745.45 134.019 745.069 133.689C744.688 133.36 744.215 133.195 743.652 133.195C743.141 133.195 742.703 133.36 742.339 133.689C741.975 134.01 741.758 134.448 741.689 135.002H745.654ZM757.331 131.947C757.894 131.947 758.397 132.064 758.839 132.298C759.289 132.532 759.64 132.879 759.892 133.338C760.152 133.798 760.282 134.352 760.282 135.002V139.227H758.813V135.223C758.813 134.582 758.652 134.092 758.332 133.754C758.011 133.408 757.573 133.234 757.019 133.234C756.464 133.234 756.022 133.408 755.693 133.754C755.372 134.092 755.212 134.582 755.212 135.223V139.227H753.743V135.223C753.743 134.582 753.582 134.092 753.262 133.754C752.941 133.408 752.503 133.234 751.949 133.234C751.394 133.234 750.952 133.408 750.623 133.754C750.302 134.092 750.142 134.582 750.142 135.223V139.227H748.66V132.064H750.142V132.883C750.384 132.589 750.692 132.359 751.065 132.194C751.437 132.03 751.836 131.947 752.261 131.947C752.833 131.947 753.344 132.069 753.795 132.311C754.245 132.554 754.592 132.905 754.835 133.364C755.051 132.931 755.389 132.589 755.849 132.337C756.308 132.077 756.802 131.947 757.331 131.947ZM763.649 133.13C763.901 132.784 764.243 132.502 764.676 132.285C765.118 132.06 765.608 131.947 766.145 131.947C766.778 131.947 767.35 132.099 767.861 132.402C768.373 132.706 768.776 133.139 769.07 133.702C769.365 134.257 769.512 134.894 769.512 135.613C769.512 136.333 769.365 136.978 769.07 137.55C768.776 138.114 768.368 138.556 767.848 138.876C767.337 139.188 766.769 139.344 766.145 139.344C765.591 139.344 765.097 139.236 764.663 139.019C764.239 138.803 763.901 138.525 763.649 138.187V139.227H762.167V129.607H763.649V133.13ZM768.004 135.613C768.004 135.119 767.9 134.695 767.692 134.339C767.493 133.975 767.224 133.702 766.886 133.52C766.557 133.33 766.202 133.234 765.82 133.234C765.448 133.234 765.092 133.33 764.754 133.52C764.425 133.711 764.156 133.988 763.948 134.352C763.749 134.716 763.649 135.145 763.649 135.639C763.649 136.133 763.749 136.567 763.948 136.939C764.156 137.303 764.425 137.581 764.754 137.771C765.092 137.962 765.448 138.057 765.82 138.057C766.202 138.057 766.557 137.962 766.886 137.771C767.224 137.572 767.493 137.286 767.692 136.913C767.9 136.541 768.004 136.107 768.004 135.613ZM770.484 135.613C770.484 134.894 770.631 134.257 770.926 133.702C771.229 133.148 771.637 132.719 772.148 132.415C772.668 132.103 773.24 131.947 773.864 131.947C774.427 131.947 774.917 132.06 775.333 132.285C775.758 132.502 776.096 132.775 776.347 133.104V132.064H777.842V139.227H776.347V138.161C776.096 138.499 775.753 138.781 775.32 139.006C774.887 139.232 774.393 139.344 773.838 139.344C773.223 139.344 772.659 139.188 772.148 138.876C771.637 138.556 771.229 138.114 770.926 137.55C770.631 136.978 770.484 136.333 770.484 135.613ZM776.347 135.639C776.347 135.145 776.243 134.716 776.035 134.352C775.836 133.988 775.571 133.711 775.242 133.52C774.913 133.33 774.557 133.234 774.176 133.234C773.795 133.234 773.439 133.33 773.11 133.52C772.781 133.702 772.512 133.975 772.304 134.339C772.105 134.695 772.005 135.119 772.005 135.613C772.005 136.107 772.105 136.541 772.304 136.913C772.512 137.286 772.781 137.572 773.11 137.771C773.448 137.962 773.803 138.057 774.176 138.057C774.557 138.057 774.913 137.962 775.242 137.771C775.571 137.581 775.836 137.303 776.035 136.939C776.243 136.567 776.347 136.133 776.347 135.639ZM786.236 132.064L781.842 142.594H780.308L781.764 139.11L778.943 132.064H780.594L782.609 137.524L784.702 132.064H786.236ZM786.861 135.613C786.861 134.894 787.008 134.257 787.303 133.702C787.606 133.148 788.014 132.719 788.525 132.415C789.045 132.103 789.617 131.947 790.241 131.947C790.804 131.947 791.294 132.06 791.71 132.285C792.135 132.502 792.473 132.775 792.724 133.104V132.064H794.219V139.227H792.724V138.161C792.473 138.499 792.13 138.781 791.697 139.006C791.264 139.232 790.77 139.344 790.215 139.344C789.6 139.344 789.036 139.188 788.525 138.876C788.014 138.556 787.606 138.114 787.303 137.55C787.008 136.978 786.861 136.333 786.861 135.613ZM792.724 135.639C792.724 135.145 792.62 134.716 792.412 134.352C792.213 133.988 791.948 133.711 791.619 133.52C791.29 133.33 790.934 133.234 790.553 133.234C790.172 133.234 789.816 133.33 789.487 133.52C789.158 133.702 788.889 133.975 788.681 134.339C788.482 134.695 788.382 135.119 788.382 135.613C788.382 136.107 788.482 136.541 788.681 136.913C788.889 137.286 789.158 137.572 789.487 137.771C789.825 137.962 790.18 138.057 790.553 138.057C790.934 138.057 791.29 137.962 791.619 137.771C791.948 137.581 792.213 137.303 792.412 136.939C792.62 136.567 792.724 136.133 792.724 135.639ZM797.647 133.104C797.864 132.74 798.15 132.459 798.505 132.259C798.869 132.051 799.298 131.947 799.792 131.947V133.481H799.415C798.835 133.481 798.393 133.629 798.089 133.923C797.795 134.218 797.647 134.729 797.647 135.457V139.227H796.165V132.064H797.647V133.104ZM800.661 135.613C800.661 134.894 800.808 134.257 801.103 133.702C801.406 133.148 801.813 132.719 802.325 132.415C802.845 132.103 803.417 131.947 804.041 131.947C804.604 131.947 805.094 132.06 805.51 132.285C805.934 132.502 806.272 132.775 806.524 133.104V132.064H808.019V139.227H806.524V138.161C806.272 138.499 805.93 138.781 805.497 139.006C805.063 139.232 804.569 139.344 804.015 139.344C803.399 139.344 802.836 139.188 802.325 138.876C801.813 138.556 801.406 138.114 801.103 137.55C800.808 136.978 800.661 136.333 800.661 135.613ZM806.524 135.639C806.524 135.145 806.42 134.716 806.212 134.352C806.012 133.988 805.748 133.711 805.419 133.52C805.089 133.33 804.734 133.234 804.353 133.234C803.971 133.234 803.616 133.33 803.287 133.52C802.957 133.702 802.689 133.975 802.481 134.339C802.281 134.695 802.182 135.119 802.182 135.613C802.182 136.107 802.281 136.541 802.481 136.913C802.689 137.286 802.957 137.572 803.287 137.771C803.625 137.962 803.98 138.057 804.353 138.057C804.734 138.057 805.089 137.962 805.419 137.771C805.748 137.581 806.012 137.303 806.212 136.939C806.42 136.567 806.524 136.133 806.524 135.639ZM813.579 131.947C814.143 131.947 814.645 132.064 815.087 132.298C815.538 132.532 815.889 132.879 816.14 133.338C816.392 133.798 816.517 134.352 816.517 135.002V139.227H815.048V135.223C815.048 134.582 814.888 134.092 814.567 133.754C814.247 133.408 813.809 133.234 813.254 133.234C812.7 133.234 812.258 133.408 811.928 133.754C811.608 134.092 811.447 134.582 811.447 135.223V139.227H809.965V132.064H811.447V132.883C811.69 132.589 811.998 132.359 812.37 132.194C812.752 132.03 813.155 131.947 813.579 131.947Z" fill="#FAFAFA" fill-opacity="0.7"/>
<rect x="603.335" y="99.7273" width="171.19" height="3" fill="#CFD8DC"/>
<rect x="762.505" y="88.2273" width="24" height="24" rx="12" fill="#E4E5E5"/>
<rect x="762.505" y="88.2273" width="24" height="24" rx="12" stroke="#8191AB"/>
<path d="M771.419 98.9153C771.453 97.988 771.757 97.273 772.329 96.7703C772.901 96.2676 773.676 96.0163 774.656 96.0163C775.306 96.0163 775.86 96.129 776.32 96.3543C776.788 96.5796 777.139 96.8873 777.373 97.2773C777.615 97.6673 777.737 98.105 777.737 98.5903C777.737 99.1623 777.594 99.6303 777.308 99.9943C777.022 100.35 776.688 100.592 776.307 100.722V100.774C776.801 100.939 777.191 101.212 777.477 101.593C777.763 101.975 777.906 102.464 777.906 103.062C777.906 103.6 777.78 104.076 777.529 104.492C777.286 104.9 776.926 105.22 776.45 105.454C775.982 105.688 775.423 105.805 774.773 105.805C773.733 105.805 772.901 105.55 772.277 105.038C771.661 104.527 771.336 103.756 771.302 102.724H773.46C773.468 103.106 773.577 103.409 773.785 103.634C773.993 103.851 774.296 103.959 774.695 103.959C775.033 103.959 775.293 103.864 775.475 103.673C775.665 103.474 775.761 103.214 775.761 102.893C775.761 102.477 775.626 102.178 775.358 101.996C775.098 101.806 774.677 101.71 774.097 101.71H773.681V99.9033H774.097C774.539 99.9033 774.894 99.8296 775.163 99.6823C775.44 99.5263 775.579 99.2533 775.579 98.8633C775.579 98.5513 775.492 98.3086 775.319 98.1353C775.145 97.962 774.907 97.8753 774.604 97.8753C774.274 97.8753 774.027 97.975 773.863 98.1743C773.707 98.3736 773.616 98.6206 773.59 98.9153H771.419Z" fill="#8191AB"/>
<path d="M905.304 131.388V134.04H908.424V135.249H905.304V138.018H908.814V139.227H903.822V130.179H908.814V131.388H905.304ZM916.139 133.897V135.145H910.796V133.897H916.139ZM924.081 130.192V131.401H921.676V139.227H920.194V131.401H917.776V130.192H924.081ZM926.336 131.115C926.067 131.115 925.842 131.024 925.66 130.842C925.478 130.66 925.387 130.435 925.387 130.166C925.387 129.898 925.478 129.672 925.66 129.49C925.842 129.308 926.067 129.217 926.336 129.217C926.596 129.217 926.817 129.308 926.999 129.49C927.181 129.672 927.272 129.898 927.272 130.166C927.272 130.435 927.181 130.66 926.999 130.842C926.817 131.024 926.596 131.115 926.336 131.115ZM927.064 132.064V139.227H925.582V132.064H927.064ZM931.844 135.652L935.146 139.227H933.144L930.492 136.146V139.227H929.01V129.607H930.492V135.197L933.092 132.064H935.146L931.844 135.652ZM942.773 135.47C942.773 135.739 942.756 135.982 942.721 136.198H937.248C937.291 136.77 937.504 137.23 937.885 137.576C938.266 137.923 938.734 138.096 939.289 138.096C940.086 138.096 940.65 137.763 940.979 137.095H942.578C942.361 137.754 941.967 138.296 941.395 138.72C940.832 139.136 940.13 139.344 939.289 139.344C938.604 139.344 937.989 139.193 937.443 138.889C936.906 138.577 936.481 138.144 936.169 137.589C935.866 137.026 935.714 136.376 935.714 135.639C935.714 134.903 935.861 134.257 936.156 133.702C936.459 133.139 936.88 132.706 937.417 132.402C937.963 132.099 938.587 131.947 939.289 131.947C939.965 131.947 940.567 132.095 941.096 132.389C941.625 132.684 942.036 133.1 942.331 133.637C942.626 134.166 942.773 134.777 942.773 135.47ZM941.226 135.002C941.217 134.456 941.022 134.019 940.641 133.689C940.26 133.36 939.787 133.195 939.224 133.195C938.713 133.195 938.275 133.36 937.911 133.689C937.547 134.01 937.33 134.448 937.261 135.002H941.226ZM945.96 133.273V137.238C945.96 137.507 946.021 137.702 946.142 137.823C946.272 137.936 946.489 137.992 946.792 137.992H947.702V139.227H946.532C945.865 139.227 945.354 139.071 944.998 138.759C944.643 138.447 944.465 137.94 944.465 137.238V133.273H943.62V132.064H944.465V130.283H945.96V132.064H947.702V133.273H945.96ZM958.282 130.192V131.401H955.877V139.227H954.395V131.401H951.977V130.192H958.282ZM966.348 135.47C966.348 135.739 966.331 135.982 966.296 136.198H960.823C960.866 136.77 961.079 137.23 961.46 137.576C961.841 137.923 962.309 138.096 962.864 138.096C963.661 138.096 964.225 137.763 964.554 137.095H966.153C965.936 137.754 965.542 138.296 964.97 138.72C964.407 139.136 963.705 139.344 962.864 139.344C962.179 139.344 961.564 139.193 961.018 138.889C960.481 138.577 960.056 138.144 959.744 137.589C959.441 137.026 959.289 136.376 959.289 135.639C959.289 134.903 959.436 134.257 959.731 133.702C960.034 133.139 960.455 132.706 960.992 132.402C961.538 132.099 962.162 131.947 962.864 131.947C963.54 131.947 964.142 132.095 964.671 132.389C965.2 132.684 965.611 133.1 965.906 133.637C966.201 134.166 966.348 134.777 966.348 135.47ZM964.801 135.002C964.792 134.456 964.597 134.019 964.216 133.689C963.835 133.36 963.362 133.195 962.799 133.195C962.288 133.195 961.85 133.36 961.486 133.689C961.122 134.01 960.905 134.448 960.836 135.002H964.801ZM969.289 133.104C969.505 132.74 969.791 132.459 970.147 132.259C970.511 132.051 970.94 131.947 971.434 131.947V133.481H971.057C970.476 133.481 970.034 133.629 969.731 133.923C969.436 134.218 969.289 134.729 969.289 135.457V139.227H967.807V132.064H969.289V133.104ZM974.278 133.13C974.529 132.784 974.872 132.502 975.305 132.285C975.747 132.06 976.237 131.947 976.774 131.947C977.407 131.947 977.979 132.099 978.49 132.402C979.001 132.706 979.404 133.139 979.699 133.702C979.994 134.257 980.141 134.894 980.141 135.613C980.141 136.333 979.994 136.978 979.699 137.55C979.404 138.114 978.997 138.556 978.477 138.876C977.966 139.188 977.398 139.344 976.774 139.344C976.219 139.344 975.725 139.236 975.292 139.019C974.867 138.803 974.529 138.525 974.278 138.187V139.227H972.796V129.607H974.278V133.13ZM978.633 135.613C978.633 135.119 978.529 134.695 978.321 134.339C978.122 133.975 977.853 133.702 977.515 133.52C977.186 133.33 976.83 133.234 976.449 133.234C976.076 133.234 975.721 133.33 975.383 133.52C975.054 133.711 974.785 133.988 974.577 134.352C974.378 134.716 974.278 135.145 974.278 135.639C974.278 136.133 974.378 136.567 974.577 136.939C974.785 137.303 975.054 137.581 975.383 137.771C975.721 137.962 976.076 138.057 976.449 138.057C976.83 138.057 977.186 137.962 977.515 137.771C977.853 137.572 978.122 137.286 978.321 136.913C978.529 136.541 978.633 136.107 978.633 135.613ZM982.36 131.115C982.092 131.115 981.866 131.024 981.684 130.842C981.502 130.66 981.411 130.435 981.411 130.166C981.411 129.898 981.502 129.672 981.684 129.49C981.866 129.308 982.092 129.217 982.36 129.217C982.62 129.217 982.841 129.308 983.023 129.49C983.205 129.672 983.296 129.898 983.296 130.166C983.296 130.435 983.205 130.66 983.023 130.842C982.841 131.024 982.62 131.115 982.36 131.115ZM983.088 132.064V139.227H981.606V132.064H983.088ZM986.763 133.273V137.238C986.763 137.507 986.824 137.702 986.945 137.823C987.075 137.936 987.292 137.992 987.595 137.992H988.505V139.227H987.335C986.668 139.227 986.156 139.071 985.801 138.759C985.446 138.447 985.268 137.94 985.268 137.238V133.273H984.423V132.064H985.268V130.283H986.763V132.064H988.505V133.273H986.763Z" fill="#FAFAFA" fill-opacity="0.7"/>
<rect x="774.515" y="99.7273" width="171.19" height="3" fill="#CFD8DC"/>
<rect x="933.705" y="88.2273" width="24" height="24" rx="12" fill="#E4E5E5"/>
<rect x="933.705" y="88.2273" width="24" height="24" rx="12" stroke="#8191AB"/>
<path d="M942.146 104.037V102.243L946.254 96.3673H948.737V102.113H949.803V104.037H948.737V105.727H946.514V104.037H942.146ZM946.67 98.8113L944.486 102.113H946.67V98.8113Z" fill="#8191AB"/>
<defs>
<clipPath id="clip0_63_5">
<rect width="1440" height="155.19" fill="white" transform="translate(0.925171 0.537354)"/>
</clipPath>
<clipPath id="clip1_63_5">
<rect width="1440" height="560" fill="white" transform="translate(0.925171 -201.868)"/>
</clipPath>
</defs>
</svg>
