<svg width="18" height="17" viewBox="0 0 18 17" fill="none" xmlns="http://www.w3.org/2000/svg">
<g clip-path="url(#clip0_312_2102)">
<path d="M6.21875 1.64648C6.21875 1.64648 6.41146 1.45378 6.79688 1.06836C7.18229 0.682942 7.91667 0.490234 9 0.490234C10.0833 0.490234 11.0104 0.875651 11.7812 1.64648C12.5521 2.41732 12.9375 3.3444 12.9375 4.42773C12.9375 5.7194 11.75 7.76107 9.375 10.5527C9.27083 10.6777 9.14583 10.7402 9 10.7402C8.85417 10.7402 8.72917 10.6777 8.625 10.5527C6.25 7.76107 5.0625 5.7194 5.0625 4.42773C5.0625 3.3444 5.44792 2.41732 6.21875 1.64648ZM8.07812 5.34961C8.07812 5.34961 8.14323 5.41471 8.27344 5.54492C8.40365 5.67513 8.64583 5.74023 9 5.74023C9.35417 5.74023 9.66146 5.61003 9.92188 5.34961C10.1823 5.08919 10.3125 4.7819 10.3125 4.42773C10.3125 4.07357 10.1823 3.76628 9.92188 3.50586C9.66146 3.24544 9.35417 3.11523 9 3.11523C8.64583 3.11523 8.33854 3.24544 8.07812 3.50586C7.81771 3.76628 7.6875 4.07357 7.6875 4.42773C7.6875 4.7819 7.81771 5.08919 8.07812 5.34961ZM0.625 7.24023L4.34375 5.74023C4.48958 6.19857 4.70833 6.68815 5 7.20898V14.4902L0.6875 16.459C0.520833 16.5215 0.364583 16.5007 0.21875 16.3965C0.0729167 16.2923 0 16.1569 0 15.9902V8.17773C0 7.7194 0.208333 7.4069 0.625 7.24023ZM7.84375 11.209C8.15625 11.5632 8.54167 11.7402 9 11.7402C9.45833 11.7402 9.84375 11.5632 10.1562 11.209C10.8438 10.3757 11.4583 9.57357 12 8.80273V16.4902L6 14.4902V8.80273C6.54167 9.57357 7.15625 10.3757 7.84375 11.209ZM17.3125 5.52148C17.4792 5.45898 17.6354 5.47982 17.7812 5.58398C17.9271 5.68815 18 5.82357 18 5.99023V13.8027C18 14.2611 17.7917 14.5736 17.375 14.7402L13 16.4902V7.49023L17.3125 5.52148Z" fill="#0C2F54"/>
</g>
<defs>
<clipPath id="clip0_312_2102">
<rect width="18" height="16" fill="white" transform="matrix(1 0 0 -1 0 16.4902)"/>
</clipPath>
</defs>
</svg>
