<svg width="21" height="25" viewBox="0 0 21 25" fill="none" xmlns="http://www.w3.org/2000/svg">
<g opacity="0.4" clip-path="url(#clip0_63_170)">
<path d="M20.28 1.51489V23.2649C20.28 23.5774 20.1706 23.843 19.9519 24.0618C19.7331 24.2805 19.4675 24.3899 19.155 24.3899H16.53C16.2175 24.3899 15.9519 24.2805 15.7331 24.0618C15.5144 23.843 15.405 23.5774 15.405 23.2649C15.405 23.2336 15.405 23.2024 15.405 23.1711L16.1081 14.4993C14.7331 13.4055 13.78 12.1868 13.2488 10.843C12.7175 9.49927 12.6003 8.23364 12.8972 7.04614C13.1941 5.85864 13.6706 4.74927 14.3269 3.71802C14.9831 2.68677 15.7566 1.87427 16.6472 1.28052C17.5378 0.686768 18.3738 0.389893 19.155 0.389893C19.4675 0.389893 19.7331 0.499268 19.9519 0.718018C20.1706 0.936768 20.28 1.20239 20.28 1.51489Z" fill="#212529"/>
</g>
<defs>
<clipPath id="clip0_63_170">
<rect width="19.5" height="24" fill="white" transform="matrix(1 0 0 -1 0.780029 24.3899)"/>
</clipPath>
</defs>
</svg>
