<svg width="16" height="19" viewBox="0 0 16 19" fill="none" xmlns="http://www.w3.org/2000/svg">
<g clip-path="url(#clip0_200_1850)">
<path d="M9.39124 2.7693L15.5787 8.67555C15.7428 8.83961 15.8248 9.03883 15.8248 9.27321C15.8248 9.50758 15.7428 9.7068 15.5787 9.87086L9.39124 15.7771C9.13342 16.0349 8.82874 16.0935 8.47717 15.9529C8.12561 15.8123 7.94983 15.5545 7.94983 15.1795V3.36696C7.94983 2.99196 8.12561 2.73415 8.47717 2.59352C8.82874 2.4529 9.13342 2.51149 9.39124 2.7693Z" fill="#0C2F54"/>
<g opacity="0.4" clip-path="url(#clip1_200_1850)">
<path d="M0.918579 7.02344H7.94983V11.5234H0.918579C0.684204 11.5234 0.484985 11.4414 0.320923 11.2773C0.15686 11.1133 0.0748291 10.9141 0.0748291 10.6797V7.86719C0.0748291 7.63281 0.15686 7.43359 0.320923 7.26953C0.484985 7.10547 0.684204 7.02344 0.918579 7.02344Z" fill="#0C2F54"/>
</g>
</g>
<defs>
<clipPath id="clip0_200_1850">
<rect width="15.75" height="18" fill="white" transform="matrix(1 0 0 -1 0.0748291 18.2734)"/>
</clipPath>
<clipPath id="clip1_200_1850">
<rect width="15.75" height="18" fill="white" transform="matrix(1 0 0 -1 0.0748291 18.2734)"/>
</clipPath>
</defs>
</svg>
