<svg width="62" height="75" viewBox="0 0 62 75" fill="none" xmlns="http://www.w3.org/2000/svg">
<path d="M0 25H58.5622V75H0V25Z" fill="white" fill-opacity="0.01"/>
<path d="M10 3H58.8018V28H10V3Z" stroke="#0071CC" stroke-width="4.88018" stroke-linejoin="round"/>
<path fill-rule="evenodd" clip-rule="evenodd" d="M10 11.3333C15.3905 11.3333 19.7604 7.6024 19.7604 3H10V11.3333Z" stroke="#0071CC" stroke-width="4.88018" stroke-linecap="round" stroke-linejoin="round"/>
<path fill-rule="evenodd" clip-rule="evenodd" d="M10 19.666C15.3905 19.666 19.7604 23.397 19.7604 27.9993H10V19.666Z" stroke="#0071CC" stroke-width="4.88018" stroke-linecap="round" stroke-linejoin="round"/>
<path fill-rule="evenodd" clip-rule="evenodd" d="M58.8019 19.666V27.9993H49.0415C49.0415 23.397 53.4113 19.666 58.8019 19.666Z" stroke="#0071CC" stroke-width="4.88018" stroke-linecap="round" stroke-linejoin="round"/>
<path fill-rule="evenodd" clip-rule="evenodd" d="M58.8019 11.3333C53.4113 11.3333 49.0415 7.6024 49.0415 3H58.8019V11.3333Z" stroke="#0071CC" stroke-width="4.88018" stroke-linecap="round" stroke-linejoin="round"/>
<path d="M34.401 21.75C37.77 21.75 40.5012 18.9518 40.5012 15.5C40.5012 12.0482 37.77 9.25 34.401 9.25C31.032 9.25 28.3008 12.0482 28.3008 15.5C28.3008 18.9518 31.032 21.75 34.401 21.75Z" stroke="#0071CC" stroke-width="4.88018" stroke-linejoin="round"/>
</svg>
