<svg width="15" height="17" viewBox="0 0 15 17" fill="none" xmlns="http://www.w3.org/2000/svg">
<g clip-path="url(#clip0_312_2124)">
<path d="M14.605 5.49023H1.35498C1.10498 5.49023 0.97998 5.36523 0.97998 5.11523V3.99023C0.97998 3.57357 1.12581 3.2194 1.41748 2.92773C1.70915 2.63607 2.06331 2.49023 2.47998 2.49023H3.97998V0.865234C3.97998 0.615234 4.10498 0.490234 4.35498 0.490234H5.60498C5.85498 0.490234 5.97998 0.615234 5.97998 0.865234V2.49023H9.97998V0.865234C9.97998 0.615234 10.105 0.490234 10.355 0.490234H11.605C11.855 0.490234 11.98 0.615234 11.98 0.865234V2.49023H13.48C13.8966 2.49023 14.2508 2.63607 14.5425 2.92773C14.8341 3.2194 14.98 3.57357 14.98 3.99023V5.11523C14.98 5.36523 14.855 5.49023 14.605 5.49023ZM1.35498 6.49023H14.605C14.855 6.49023 14.98 6.61523 14.98 6.86523V14.9902C14.98 15.4069 14.8341 15.7611 14.5425 16.0527C14.2508 16.3444 13.8966 16.4902 13.48 16.4902H2.47998C2.06331 16.4902 1.70915 16.3444 1.41748 16.0527C1.12581 15.7611 0.97998 15.4069 0.97998 14.9902V6.86523C0.97998 6.61523 1.10498 6.49023 1.35498 6.49023ZM11.23 10.8652C11.23 10.6152 11.105 10.4902 10.855 10.4902H8.97998V8.61523C8.97998 8.36523 8.85498 8.24023 8.60498 8.24023H7.35498C7.10498 8.24023 6.97998 8.36523 6.97998 8.61523V10.4902H5.10498C4.85498 10.4902 4.72998 10.6152 4.72998 10.8652V12.1152C4.72998 12.3652 4.85498 12.4902 5.10498 12.4902H6.97998V14.3652C6.97998 14.6152 7.10498 14.7402 7.35498 14.7402H8.60498C8.85498 14.7402 8.97998 14.6152 8.97998 14.3652V12.4902H10.855C11.105 12.4902 11.23 12.3652 11.23 12.1152V10.8652Z" fill="#0C2F54"/>
</g>
<defs>
<clipPath id="clip0_312_2124">
<rect width="14" height="16" fill="white" transform="matrix(1 0 0 -1 0.97998 16.4902)"/>
</clipPath>
</defs>
</svg>
