<svg width="1374" height="156" viewBox="0 0 1374 156" fill="none" xmlns="http://www.w3.org/2000/svg">
<rect width="1376" height="155.19" fill="#0C2F55"/>
<g clip-path="url(#clip0_200_2233)">
<g clip-path="url(#clip1_200_2233)">
<mask id="mask0_200_2233" style="mask-type:luminance" maskUnits="userSpaceOnUse" x="0" y="-203" width="1440" height="561">
<path d="M1440 -202.404H0V357.596H1440V-202.404Z" fill="white"/>
</mask>
<g mask="url(#mask0_200_2233)">
<path d="M1440 -202.404H0V357.596H1440V-202.404Z" fill="#003A68"/>
<path d="M0 307.3C96.661 305.381 184.185 262.479 269.331 216.684C360.89 167.44 466.29 124.775 512.507 31.6506C559.085 -62.2014 535.874 -173.839 513.997 -276.305C493.267 -373.401 453.98 -464.429 390.325 -540.622C325.849 -617.798 243.897 -677.037 149.726 -712.324C50.491 -749.509 -54.904 -761.543 -159.843 -746.777C-277.174 -730.267 -403.233 -708.377 -485.351 -622.962C-568.692 -536.274 -600.884 -408.953 -600.233 -288.703C-599.628 -176.964 -541.277 -76.9834 -481.883 17.6656C-428.756 102.327 -361.959 176.026 -276.292 227.516C-192.432 277.92 -97.823 309.242 0 307.3Z" fill="#002E53"/>
<path d="M1440 944.419C1566.99 953.618 1704.95 1005.25 1814.21 939.873C1923.79 874.305 1961.19 734.417 1996.21 611.61C2027.48 501.975 2036.65 385.63 2003.35 276.599C1972.68 176.225 1892.7 103.841 1818.44 29.6745C1749.18 -39.5025 1679.54 -110.79 1586.14 -140.093C1491.79 -169.693 1392.67 -152.968 1295.55 -134.37C1189.24 -114.013 1082.31 -92.4675 996.046 -27.0915C897.1 47.8985 795.189 139.544 772.964 261.691C750.572 384.755 821.708 502.633 879.473 613.581C934.704 719.662 996.089 827.277 1099.09 888.069C1200.33 947.825 1322.75 935.925 1440 944.419Z" fill="#00467D"/>
</g>
<path d="M17.832 15.88C19.016 15.88 20.0507 16.1093 20.936 16.568C21.832 17.016 22.52 17.6667 23 18.52C23.4907 19.3627 23.736 20.3493 23.736 21.48C23.736 22.6107 23.4907 23.592 23 24.424C22.52 25.256 21.832 25.896 20.936 26.344C20.0507 26.7813 19.016 27 17.832 27H14.2V15.88H17.832ZM17.832 25.512C19.1333 25.512 20.1307 25.16 20.824 24.456C21.5173 23.752 21.864 22.76 21.864 21.48C21.864 20.1893 21.5173 19.1813 20.824 18.456C20.1307 17.7307 19.1333 17.368 17.832 17.368H16.024V25.512H17.832ZM33.6238 22.376C33.6238 22.7067 33.6024 23.0053 33.5598 23.272H26.8238C26.8771 23.976 27.1384 24.5413 27.6078 24.968C28.0771 25.3947 28.6531 25.608 29.3358 25.608C30.3171 25.608 31.0104 25.1973 31.4158 24.376H33.3837C33.1171 25.1867 32.6318 25.8533 31.9278 26.376C31.2344 26.888 30.3704 27.144 29.3358 27.144C28.4931 27.144 27.7358 26.9573 27.0638 26.584C26.4024 26.2 25.8798 25.6667 25.4958 24.984C25.1224 24.2907 24.9358 23.4907 24.9358 22.584C24.9358 21.6773 25.1171 20.8827 25.4798 20.2C25.8531 19.5067 26.3704 18.9733 27.0318 18.6C27.7038 18.2267 28.4718 18.04 29.3358 18.04C30.1678 18.04 30.9091 18.2213 31.5598 18.584C32.2104 18.9467 32.7171 19.4587 33.0798 20.12C33.4424 20.7707 33.6238 21.5227 33.6238 22.376ZM31.7198 21.8C31.7091 21.128 31.4691 20.5893 30.9998 20.184C30.5304 19.7787 29.9491 19.576 29.2558 19.576C28.6264 19.576 28.0878 19.7787 27.6398 20.184C27.1918 20.5787 26.9251 21.1173 26.8398 21.8H31.7198ZM37.5468 19.672V24.552C37.5468 24.8827 37.6214 25.1227 37.7708 25.272C37.9308 25.4107 38.1974 25.48 38.5708 25.48H39.6908V27H38.2508C37.4294 27 36.8001 26.808 36.3628 26.424C35.9254 26.04 35.7068 25.416 35.7068 24.552V19.672H34.6668V18.184H35.7068V15.992H37.5468V18.184H39.6908V19.672H37.5468ZM40.7639 22.552C40.7639 21.6667 40.9452 20.8827 41.3079 20.2C41.6812 19.5173 42.1825 18.9893 42.8119 18.616C43.4519 18.232 44.1559 18.04 44.9239 18.04C45.6172 18.04 46.2199 18.1787 46.7319 18.456C47.2545 18.7227 47.6705 19.0587 47.9799 19.464V18.184H49.8199V27H47.9799V25.688C47.6705 26.104 47.2492 26.4507 46.7159 26.728C46.1825 27.0053 45.5745 27.144 44.8919 27.144C44.1345 27.144 43.4412 26.952 42.8119 26.568C42.1825 26.1733 41.6812 25.6293 41.3079 24.936C40.9452 24.232 40.7639 23.4373 40.7639 22.552ZM47.9799 22.584C47.9799 21.976 47.8519 21.448 47.5959 21C47.3505 20.552 47.0252 20.2107 46.6199 19.976C46.2145 19.7413 45.7772 19.624 45.3079 19.624C44.8385 19.624 44.4012 19.7413 43.9959 19.976C43.5905 20.2 43.2599 20.536 43.0039 20.984C42.7585 21.4213 42.6359 21.944 42.6359 22.552C42.6359 23.16 42.7585 23.6933 43.0039 24.152C43.2599 24.6107 43.5905 24.9627 43.9959 25.208C44.4119 25.4427 44.8492 25.56 45.3079 25.56C45.7772 25.56 46.2145 25.4427 46.6199 25.208C47.0252 24.9733 47.3505 24.632 47.5959 24.184C47.8519 23.7253 47.9799 23.192 47.9799 22.584ZM53.1436 17.016C52.813 17.016 52.5356 16.904 52.3116 16.68C52.0876 16.456 51.9756 16.1787 51.9756 15.848C51.9756 15.5173 52.0876 15.24 52.3116 15.016C52.5356 14.792 52.813 14.68 53.1436 14.68C53.4636 14.68 53.7356 14.792 53.9596 15.016C54.1836 15.24 54.2956 15.5173 54.2956 15.848C54.2956 16.1787 54.1836 16.456 53.9596 16.68C53.7356 16.904 53.4636 17.016 53.1436 17.016ZM54.0396 18.184V27H52.2156V18.184H54.0396ZM58.2584 15.16V27H56.4344V15.16H58.2584ZM71.9934 15.88V17.368H69.0334V27H67.2094V17.368H64.2334V15.88H71.9934ZM74.7686 17.016C74.438 17.016 74.1606 16.904 73.9366 16.68C73.7126 16.456 73.6006 16.1787 73.6006 15.848C73.6006 15.5173 73.7126 15.24 73.9366 15.016C74.1606 14.792 74.438 14.68 74.7686 14.68C75.0886 14.68 75.3606 14.792 75.5846 15.016C75.8086 15.24 75.9206 15.5173 75.9206 15.848C75.9206 16.1787 75.8086 16.456 75.5846 16.68C75.3606 16.904 75.0886 17.016 74.7686 17.016ZM75.6646 18.184V27H73.8406V18.184H75.6646ZM81.5474 22.6L85.6114 27H83.1474L79.8834 23.208V27H78.0594V15.16H79.8834V22.04L83.0834 18.184H85.6114L81.5474 22.6ZM94.9988 22.376C94.9988 22.7067 94.9774 23.0053 94.9348 23.272H88.1988C88.2521 23.976 88.5134 24.5413 88.9828 24.968C89.4521 25.3947 90.0281 25.608 90.7108 25.608C91.6921 25.608 92.3854 25.1973 92.7908 24.376H94.7587C94.4921 25.1867 94.0068 25.8533 93.3028 26.376C92.6094 26.888 91.7454 27.144 90.7108 27.144C89.8681 27.144 89.1108 26.9573 88.4388 26.584C87.7774 26.2 87.2548 25.6667 86.8708 24.984C86.4974 24.2907 86.3108 23.4907 86.3108 22.584C86.3108 21.6773 86.4921 20.8827 86.8548 20.2C87.2281 19.5067 87.7454 18.9733 88.4068 18.6C89.0788 18.2267 89.8468 18.04 90.7108 18.04C91.5428 18.04 92.2841 18.2213 92.9348 18.584C93.5854 18.9467 94.0921 19.4587 94.4548 20.12C94.8174 20.7707 94.9988 21.5227 94.9988 22.376ZM93.0948 21.8C93.0841 21.128 92.8441 20.5893 92.3748 20.184C91.9054 19.7787 91.3241 19.576 90.6308 19.576C90.0014 19.576 89.4628 19.7787 89.0148 20.184C88.5668 20.5787 88.3001 21.1173 88.2148 21.8H93.0948ZM98.9218 19.672V24.552C98.9218 24.8827 98.9964 25.1227 99.1458 25.272C99.3058 25.4107 99.5724 25.48 99.9458 25.48H101.066V27H99.6258C98.8044 27 98.1751 26.808 97.7378 26.424C97.3004 26.04 97.0818 25.416 97.0818 24.552V19.672H96.0418V18.184H97.0818V15.992H98.9218V18.184H101.066V19.672H98.9218ZM112.855 21.288C113.452 21.3947 113.959 21.7093 114.375 22.232C114.791 22.7547 114.999 23.3467 114.999 24.008C114.999 24.5733 114.85 25.0853 114.551 25.544C114.263 25.992 113.842 26.3493 113.287 26.616C112.732 26.872 112.087 27 111.351 27H106.903V15.88H111.143C111.9 15.88 112.551 16.008 113.095 16.264C113.639 16.52 114.05 16.8667 114.327 17.304C114.604 17.7307 114.743 18.2107 114.743 18.744C114.743 19.384 114.572 19.9173 114.231 20.344C113.89 20.7707 113.431 21.0853 112.855 21.288ZM108.727 20.552H110.983C111.58 20.552 112.044 20.4187 112.375 20.152C112.716 19.8747 112.887 19.48 112.887 18.968C112.887 18.4667 112.716 18.0773 112.375 17.8C112.044 17.512 111.58 17.368 110.983 17.368H108.727V20.552ZM111.191 25.512C111.81 25.512 112.295 25.3627 112.647 25.064C112.999 24.7653 113.175 24.3493 113.175 23.816C113.175 23.272 112.988 22.84 112.615 22.52C112.242 22.2 111.746 22.04 111.127 22.04H108.727V25.512H111.191ZM124.965 18.184V27H123.141V25.96C122.853 26.3227 122.475 26.6107 122.005 26.824C121.547 27.0267 121.056 27.128 120.533 27.128C119.84 27.128 119.216 26.984 118.661 26.696C118.117 26.408 117.685 25.9813 117.365 25.416C117.056 24.8507 116.901 24.168 116.901 23.368V18.184H118.709V23.096C118.709 23.8853 118.907 24.4933 119.301 24.92C119.696 25.336 120.235 25.544 120.917 25.544C121.6 25.544 122.139 25.336 122.533 24.92C122.939 24.4933 123.141 23.8853 123.141 23.096V18.184H124.965ZM130.572 27.144C129.879 27.144 129.255 27.0213 128.7 26.776C128.156 26.52 127.724 26.1787 127.404 25.752C127.084 25.3147 126.913 24.8293 126.892 24.296H128.78C128.812 24.6693 128.988 24.984 129.308 25.24C129.639 25.4853 130.049 25.608 130.54 25.608C131.052 25.608 131.447 25.512 131.724 25.32C132.012 25.1173 132.156 24.8613 132.156 24.552C132.156 24.2213 131.996 23.976 131.676 23.816C131.367 23.656 130.871 23.48 130.188 23.288C129.527 23.1067 128.988 22.9307 128.572 22.76C128.156 22.5893 127.793 22.328 127.484 21.976C127.185 21.624 127.036 21.16 127.036 20.584C127.036 20.1147 127.175 19.688 127.452 19.304C127.729 18.9093 128.124 18.6 128.636 18.376C129.159 18.152 129.756 18.04 130.428 18.04C131.431 18.04 132.236 18.296 132.844 18.808C133.463 19.3093 133.793 19.9973 133.836 20.872H132.012C131.98 20.4773 131.82 20.1627 131.532 19.928C131.244 19.6933 130.855 19.576 130.364 19.576C129.884 19.576 129.516 19.6667 129.26 19.848C129.004 20.0293 128.876 20.2693 128.876 20.568C128.876 20.8027 128.961 21 129.132 21.16C129.303 21.32 129.511 21.448 129.756 21.544C130.001 21.6293 130.364 21.7413 130.844 21.88C131.484 22.0507 132.007 22.2267 132.412 22.408C132.828 22.5787 133.185 22.8347 133.484 23.176C133.783 23.5173 133.937 23.9707 133.948 24.536C133.948 25.0373 133.809 25.4853 133.532 25.88C133.255 26.2747 132.86 26.584 132.348 26.808C131.847 27.032 131.255 27.144 130.572 27.144Z" fill="white"/>
</g>
</g>
<path d="M401.154 134.152C401.154 133.268 401.357 132.475 401.765 131.773C402.181 131.071 402.74 130.525 403.442 130.135C404.152 129.737 404.928 129.537 405.769 129.537C406.731 129.537 407.584 129.776 408.33 130.252C409.084 130.72 409.63 131.388 409.968 132.254H408.187C407.953 131.778 407.628 131.422 407.212 131.188C406.796 130.954 406.315 130.837 405.769 130.837C405.171 130.837 404.638 130.972 404.17 131.24C403.702 131.509 403.333 131.895 403.065 132.397C402.805 132.9 402.675 133.485 402.675 134.152C402.675 134.82 402.805 135.405 403.065 135.907C403.333 136.41 403.702 136.8 404.17 137.077C404.638 137.346 405.171 137.48 405.769 137.48C406.315 137.48 406.796 137.363 407.212 137.129C407.628 136.895 407.953 136.54 408.187 136.063H409.968C409.63 136.93 409.084 137.597 408.33 138.065C407.584 138.533 406.731 138.767 405.769 138.767C404.919 138.767 404.144 138.572 403.442 138.182C402.74 137.784 402.181 137.233 401.765 136.531C401.357 135.829 401.154 135.036 401.154 134.152ZM411.208 135.075C411.208 134.356 411.356 133.719 411.65 133.164C411.954 132.61 412.361 132.181 412.872 131.877C413.392 131.565 413.964 131.409 414.588 131.409C415.152 131.409 415.641 131.522 416.057 131.747C416.482 131.964 416.82 132.237 417.071 132.566V131.526H418.566V138.689H417.071V137.623C416.82 137.961 416.478 138.243 416.044 138.468C415.611 138.694 415.117 138.806 414.562 138.806C413.947 138.806 413.384 138.65 412.872 138.338C412.361 138.018 411.954 137.576 411.65 137.012C411.356 136.44 411.208 135.795 411.208 135.075ZM417.071 135.101C417.071 134.607 416.967 134.178 416.759 133.814C416.56 133.45 416.296 133.173 415.966 132.982C415.637 132.792 415.282 132.696 414.9 132.696C414.519 132.696 414.164 132.792 413.834 132.982C413.505 133.164 413.236 133.437 413.028 133.801C412.829 134.157 412.729 134.581 412.729 135.075C412.729 135.569 412.829 136.003 413.028 136.375C413.236 136.748 413.505 137.034 413.834 137.233C414.172 137.424 414.528 137.519 414.9 137.519C415.282 137.519 415.637 137.424 415.966 137.233C416.296 137.043 416.56 136.765 416.759 136.401C416.967 136.029 417.071 135.595 417.071 135.101ZM421.995 132.566C422.212 132.202 422.498 131.921 422.853 131.721C423.217 131.513 423.646 131.409 424.14 131.409V132.943H423.763C423.182 132.943 422.74 133.091 422.437 133.385C422.142 133.68 421.995 134.191 421.995 134.919V138.689H420.513V131.526H421.995V132.566ZM426.256 130.577C425.988 130.577 425.762 130.486 425.58 130.304C425.398 130.122 425.307 129.897 425.307 129.628C425.307 129.36 425.398 129.134 425.58 128.952C425.762 128.77 425.988 128.679 426.256 128.679C426.516 128.679 426.737 128.77 426.919 128.952C427.101 129.134 427.192 129.36 427.192 129.628C427.192 129.897 427.101 130.122 426.919 130.304C426.737 130.486 426.516 130.577 426.256 130.577ZM426.984 131.526V138.689H425.502V131.526H426.984ZM438.144 129.654V130.863H435.739V138.689H434.257V130.863H431.839V129.654H438.144ZM440.399 130.577C440.13 130.577 439.905 130.486 439.723 130.304C439.541 130.122 439.45 129.897 439.45 129.628C439.45 129.36 439.541 129.134 439.723 128.952C439.905 128.77 440.13 128.679 440.399 128.679C440.659 128.679 440.88 128.77 441.062 128.952C441.244 129.134 441.335 129.36 441.335 129.628C441.335 129.897 441.244 130.122 441.062 130.304C440.88 130.486 440.659 130.577 440.399 130.577ZM441.127 131.526V138.689H439.645V131.526H441.127ZM445.907 135.114L449.209 138.689H447.207L444.555 135.608V138.689H443.073V129.069H444.555V134.659L447.155 131.526H449.209L445.907 135.114ZM456.836 134.932C456.836 135.201 456.819 135.444 456.784 135.66H451.311C451.354 136.232 451.567 136.692 451.948 137.038C452.329 137.385 452.797 137.558 453.352 137.558C454.149 137.558 454.713 137.225 455.042 136.557H456.641C456.424 137.216 456.03 137.758 455.458 138.182C454.895 138.598 454.193 138.806 453.352 138.806C452.667 138.806 452.052 138.655 451.506 138.351C450.969 138.039 450.544 137.606 450.232 137.051C449.929 136.488 449.777 135.838 449.777 135.101C449.777 134.365 449.924 133.719 450.219 133.164C450.522 132.601 450.943 132.168 451.48 131.864C452.026 131.561 452.65 131.409 453.352 131.409C454.028 131.409 454.63 131.557 455.159 131.851C455.688 132.146 456.099 132.562 456.394 133.099C456.689 133.628 456.836 134.239 456.836 134.932ZM455.289 134.464C455.28 133.918 455.085 133.481 454.704 133.151C454.323 132.822 453.85 132.657 453.287 132.657C452.776 132.657 452.338 132.822 451.974 133.151C451.61 133.472 451.393 133.91 451.324 134.464H455.289ZM460.023 132.735V136.7C460.023 136.969 460.084 137.164 460.205 137.285C460.335 137.398 460.552 137.454 460.855 137.454H461.765V138.689H460.595C459.928 138.689 459.417 138.533 459.061 138.221C458.706 137.909 458.528 137.402 458.528 136.7V132.735H457.683V131.526H458.528V129.745H460.023V131.526H461.765V132.735H460.023Z" fill="white"/>
<rect x="419.22" y="87.6895" width="24" height="24" rx="12" fill="#0071CC"/>
<rect x="419.22" y="87.6895" width="24" height="24" rx="12" stroke="white"/>
<path d="M429.319 97.7665V95.6995H432.92V105.189H430.606V97.7665H429.319Z" fill="white"/>
<path d="M560.313 132.345C560.313 132.805 560.205 133.238 559.988 133.645C559.772 134.053 559.425 134.386 558.948 134.646C558.472 134.898 557.861 135.023 557.115 135.023H555.477V138.689H553.995V129.654H557.115C557.809 129.654 558.394 129.776 558.87 130.018C559.356 130.252 559.715 130.573 559.949 130.98C560.192 131.388 560.313 131.843 560.313 132.345ZM557.115 133.814C557.679 133.814 558.099 133.689 558.376 133.437C558.654 133.177 558.792 132.813 558.792 132.345C558.792 131.357 558.233 130.863 557.115 130.863H555.477V133.814H557.115ZM568.292 134.932C568.292 135.201 568.275 135.444 568.24 135.66H562.767C562.81 136.232 563.023 136.692 563.404 137.038C563.785 137.385 564.253 137.558 564.808 137.558C565.605 137.558 566.169 137.225 566.498 136.557H568.097C567.88 137.216 567.486 137.758 566.914 138.182C566.351 138.598 565.649 138.806 564.808 138.806C564.123 138.806 563.508 138.655 562.962 138.351C562.425 138.039 562 137.606 561.688 137.051C561.385 136.488 561.233 135.838 561.233 135.101C561.233 134.365 561.38 133.719 561.675 133.164C561.978 132.601 562.399 132.168 562.936 131.864C563.482 131.561 564.106 131.409 564.808 131.409C565.484 131.409 566.086 131.557 566.615 131.851C567.144 132.146 567.555 132.562 567.85 133.099C568.145 133.628 568.292 134.239 568.292 134.932ZM566.745 134.464C566.736 133.918 566.541 133.481 566.16 133.151C565.779 132.822 565.306 132.657 564.743 132.657C564.232 132.657 563.794 132.822 563.43 133.151C563.066 133.472 562.849 133.91 562.78 134.464H566.745ZM573.364 131.409C573.928 131.409 574.43 131.526 574.872 131.76C575.323 131.994 575.674 132.341 575.925 132.8C576.177 133.26 576.302 133.814 576.302 134.464V138.689H574.833V134.685C574.833 134.044 574.673 133.554 574.352 133.216C574.032 132.87 573.594 132.696 573.039 132.696C572.485 132.696 572.043 132.87 571.713 133.216C571.393 133.554 571.232 134.044 571.232 134.685V138.689H569.75V131.526H571.232V132.345C571.475 132.051 571.783 131.821 572.155 131.656C572.537 131.492 572.94 131.409 573.364 131.409ZM581.079 131.409C581.633 131.409 582.123 131.522 582.548 131.747C582.981 131.964 583.319 132.237 583.562 132.566V131.526H585.057V138.806C585.057 139.465 584.918 140.05 584.641 140.561C584.363 141.081 583.96 141.489 583.432 141.783C582.912 142.078 582.288 142.225 581.56 142.225C580.589 142.225 579.783 141.996 579.142 141.536C578.5 141.086 578.136 140.47 578.05 139.69H579.519C579.631 140.063 579.87 140.362 580.234 140.587C580.606 140.821 581.048 140.938 581.56 140.938C582.158 140.938 582.639 140.756 583.003 140.392C583.375 140.028 583.562 139.5 583.562 138.806V137.61C583.31 137.948 582.968 138.234 582.535 138.468C582.11 138.694 581.625 138.806 581.079 138.806C580.455 138.806 579.883 138.65 579.363 138.338C578.851 138.018 578.444 137.576 578.141 137.012C577.846 136.44 577.699 135.795 577.699 135.075C577.699 134.356 577.846 133.719 578.141 133.164C578.444 132.61 578.851 132.181 579.363 131.877C579.883 131.565 580.455 131.409 581.079 131.409ZM583.562 135.101C583.562 134.607 583.458 134.178 583.25 133.814C583.05 133.45 582.786 133.173 582.457 132.982C582.127 132.792 581.772 132.696 581.391 132.696C581.009 132.696 580.654 132.792 580.325 132.982C579.995 133.164 579.727 133.437 579.519 133.801C579.319 134.157 579.22 134.581 579.22 135.075C579.22 135.569 579.319 136.003 579.519 136.375C579.727 136.748 579.995 137.034 580.325 137.233C580.663 137.424 581.018 137.519 581.391 137.519C581.772 137.519 582.127 137.424 582.457 137.233C582.786 137.043 583.05 136.765 583.25 136.401C583.458 136.029 583.562 135.595 583.562 135.101ZM587.757 130.577C587.489 130.577 587.263 130.486 587.081 130.304C586.899 130.122 586.808 129.897 586.808 129.628C586.808 129.36 586.899 129.134 587.081 128.952C587.263 128.77 587.489 128.679 587.757 128.679C588.017 128.679 588.238 128.77 588.42 128.952C588.602 129.134 588.693 129.36 588.693 129.628C588.693 129.897 588.602 130.122 588.42 130.304C588.238 130.486 588.017 130.577 587.757 130.577ZM588.485 131.526V138.689H587.003V131.526H588.485ZM593.031 138.806C592.468 138.806 591.961 138.707 591.51 138.507C591.068 138.299 590.717 138.022 590.457 137.675C590.197 137.32 590.058 136.926 590.041 136.492H591.575C591.601 136.796 591.744 137.051 592.004 137.259C592.273 137.459 592.606 137.558 593.005 137.558C593.421 137.558 593.742 137.48 593.967 137.324C594.201 137.16 594.318 136.952 594.318 136.7C594.318 136.432 594.188 136.232 593.928 136.102C593.677 135.972 593.274 135.829 592.719 135.673C592.182 135.526 591.744 135.383 591.406 135.244C591.068 135.106 590.773 134.893 590.522 134.607C590.279 134.321 590.158 133.944 590.158 133.476C590.158 133.095 590.271 132.748 590.496 132.436C590.721 132.116 591.042 131.864 591.458 131.682C591.883 131.5 592.368 131.409 592.914 131.409C593.729 131.409 594.383 131.617 594.877 132.033C595.38 132.441 595.648 133 595.683 133.71H594.201C594.175 133.39 594.045 133.134 593.811 132.943C593.577 132.753 593.261 132.657 592.862 132.657C592.472 132.657 592.173 132.731 591.965 132.878C591.757 133.026 591.653 133.221 591.653 133.463C591.653 133.654 591.722 133.814 591.861 133.944C592 134.074 592.169 134.178 592.368 134.256C592.567 134.326 592.862 134.417 593.252 134.529C593.772 134.668 594.197 134.811 594.526 134.958C594.864 135.097 595.154 135.305 595.397 135.582C595.64 135.86 595.765 136.228 595.774 136.687C595.774 137.095 595.661 137.459 595.436 137.779C595.211 138.1 594.89 138.351 594.474 138.533C594.067 138.715 593.586 138.806 593.031 138.806ZM598.129 130.577C597.861 130.577 597.635 130.486 597.453 130.304C597.271 130.122 597.18 129.897 597.18 129.628C597.18 129.36 597.271 129.134 597.453 128.952C597.635 128.77 597.861 128.679 598.129 128.679C598.389 128.679 598.61 128.77 598.792 128.952C598.974 129.134 599.065 129.36 599.065 129.628C599.065 129.897 598.974 130.122 598.792 130.304C598.61 130.486 598.389 130.577 598.129 130.577ZM598.857 131.526V138.689H597.375V131.526H598.857ZM600.309 135.075C600.309 134.356 600.456 133.719 600.751 133.164C601.054 132.61 601.462 132.181 601.973 131.877C602.493 131.565 603.065 131.409 603.689 131.409C604.252 131.409 604.742 131.522 605.158 131.747C605.583 131.964 605.921 132.237 606.172 132.566V131.526H607.667V138.689H606.172V137.623C605.921 137.961 605.578 138.243 605.145 138.468C604.712 138.694 604.218 138.806 603.663 138.806C603.048 138.806 602.484 138.65 601.973 138.338C601.462 138.018 601.054 137.576 600.751 137.012C600.456 136.44 600.309 135.795 600.309 135.075ZM606.172 135.101C606.172 134.607 606.068 134.178 605.86 133.814C605.661 133.45 605.396 133.173 605.067 132.982C604.738 132.792 604.382 132.696 604.001 132.696C603.62 132.696 603.264 132.792 602.935 132.982C602.606 133.164 602.337 133.437 602.129 133.801C601.93 134.157 601.83 134.581 601.83 135.075C601.83 135.569 601.93 136.003 602.129 136.375C602.337 136.748 602.606 137.034 602.935 137.233C603.273 137.424 603.628 137.519 604.001 137.519C604.382 137.519 604.738 137.424 605.067 137.233C605.396 137.043 605.661 136.765 605.86 136.401C606.068 136.029 606.172 135.595 606.172 135.101ZM613.228 131.409C613.791 131.409 614.294 131.526 614.736 131.76C615.186 131.994 615.537 132.341 615.789 132.8C616.04 133.26 616.166 133.814 616.166 134.464V138.689H614.697V134.685C614.697 134.044 614.536 133.554 614.216 133.216C613.895 132.87 613.457 132.696 612.903 132.696C612.348 132.696 611.906 132.87 611.577 133.216C611.256 133.554 611.096 134.044 611.096 134.685V138.689H609.614V131.526H611.096V132.345C611.338 132.051 611.646 131.821 612.019 131.656C612.4 131.492 612.803 131.409 613.228 131.409ZM624.384 129.654C625.346 129.654 626.187 129.841 626.906 130.213C627.634 130.577 628.193 131.106 628.583 131.799C628.982 132.484 629.181 133.286 629.181 134.204C629.181 135.123 628.982 135.92 628.583 136.596C628.193 137.272 627.634 137.792 626.906 138.156C626.187 138.512 625.346 138.689 624.384 138.689H621.433V129.654H624.384ZM624.384 137.48C625.441 137.48 626.252 137.194 626.815 136.622C627.378 136.05 627.66 135.244 627.66 134.204C627.66 133.156 627.378 132.337 626.815 131.747C626.252 131.158 625.441 130.863 624.384 130.863H622.915V137.48H624.384ZM630.156 135.075C630.156 134.356 630.303 133.719 630.598 133.164C630.901 132.61 631.308 132.181 631.82 131.877C632.34 131.565 632.912 131.409 633.536 131.409C634.099 131.409 634.589 131.522 635.005 131.747C635.429 131.964 635.767 132.237 636.019 132.566V131.526H637.514V138.689H636.019V137.623C635.767 137.961 635.425 138.243 634.992 138.468C634.558 138.694 634.064 138.806 633.51 138.806C632.894 138.806 632.331 138.65 631.82 138.338C631.308 138.018 630.901 137.576 630.598 137.012C630.303 136.44 630.156 135.795 630.156 135.075ZM636.019 135.101C636.019 134.607 635.915 134.178 635.707 133.814C635.507 133.45 635.243 133.173 634.914 132.982C634.584 132.792 634.229 132.696 633.848 132.696C633.466 132.696 633.111 132.792 632.782 132.982C632.452 133.164 632.184 133.437 631.976 133.801C631.776 134.157 631.677 134.581 631.677 135.075C631.677 135.569 631.776 136.003 631.976 136.375C632.184 136.748 632.452 137.034 632.782 137.233C633.12 137.424 633.475 137.519 633.848 137.519C634.229 137.519 634.584 137.424 634.914 137.233C635.243 137.043 635.507 136.765 635.707 136.401C635.915 136.029 636.019 135.595 636.019 135.101ZM641.189 132.735V136.7C641.189 136.969 641.25 137.164 641.371 137.285C641.501 137.398 641.718 137.454 642.021 137.454H642.931V138.689H641.761C641.094 138.689 640.583 138.533 640.227 138.221C639.872 137.909 639.694 137.402 639.694 136.7V132.735H638.849V131.526H639.694V129.745H641.189V131.526H642.931V132.735H641.189ZM643.803 135.075C643.803 134.356 643.951 133.719 644.245 133.164C644.549 132.61 644.956 132.181 645.467 131.877C645.987 131.565 646.559 131.409 647.183 131.409C647.747 131.409 648.236 131.522 648.652 131.747C649.077 131.964 649.415 132.237 649.666 132.566V131.526H651.161V138.689H649.666V137.623C649.415 137.961 649.073 138.243 648.639 138.468C648.206 138.694 647.712 138.806 647.157 138.806C646.542 138.806 645.979 138.65 645.467 138.338C644.956 138.018 644.549 137.576 644.245 137.012C643.951 136.44 643.803 135.795 643.803 135.075ZM649.666 135.101C649.666 134.607 649.562 134.178 649.354 133.814C649.155 133.45 648.891 133.173 648.561 132.982C648.232 132.792 647.877 132.696 647.495 132.696C647.114 132.696 646.759 132.792 646.429 132.982C646.1 133.164 645.831 133.437 645.623 133.801C645.424 134.157 645.324 134.581 645.324 135.075C645.324 135.569 645.424 136.003 645.623 136.375C645.831 136.748 646.1 137.034 646.429 137.233C646.767 137.424 647.123 137.519 647.495 137.519C647.877 137.519 648.232 137.424 648.561 137.233C648.891 137.043 649.155 136.765 649.354 136.401C649.562 136.029 649.666 135.595 649.666 135.101Z" fill="#FAFAFA" fill-opacity="0.7"/>
<rect x="431.22" y="99.1895" width="171.19" height="3" fill="#CFD8DC"/>
<rect x="590.39" y="87.6895" width="24" height="24" rx="12" fill="#E4E5E5"/>
<rect x="590.39" y="87.6895" width="24" height="24" rx="12" stroke="#8191AB"/>
<path d="M599.364 103.408C599.659 103.174 599.793 103.066 599.767 103.083C600.616 102.381 601.284 101.805 601.769 101.354C602.263 100.904 602.679 100.431 603.017 99.9375C603.355 99.4435 603.524 98.9625 603.524 98.4945C603.524 98.1391 603.442 97.8618 603.277 97.6625C603.112 97.4631 602.865 97.3635 602.536 97.3635C602.207 97.3635 601.947 97.4891 601.756 97.7405C601.574 97.9831 601.483 98.3298 601.483 98.7805H599.338C599.355 98.0438 599.511 97.4285 599.806 96.9345C600.109 96.4405 600.504 96.0765 600.989 95.8425C601.483 95.6085 602.029 95.4915 602.627 95.4915C603.658 95.4915 604.434 95.7558 604.954 96.2845C605.483 96.8131 605.747 97.5021 605.747 98.3515C605.747 99.2788 605.431 100.141 604.798 100.938C604.165 101.727 603.359 102.498 602.38 103.252H605.89V105.059H599.364V103.408Z" fill="#8191AB"/>
<path d="M738.298 132.345C738.298 132.805 738.189 133.238 737.973 133.645C737.756 134.053 737.409 134.386 736.933 134.646C736.456 134.898 735.845 135.023 735.1 135.023H733.462V138.689H731.98V129.654H735.1C735.793 129.654 736.378 129.776 736.855 130.018C737.34 130.252 737.7 130.573 737.934 130.98C738.176 131.388 738.298 131.843 738.298 132.345ZM735.1 133.814C735.663 133.814 736.083 133.689 736.361 133.437C736.638 133.177 736.777 132.813 736.777 132.345C736.777 131.357 736.218 130.863 735.1 130.863H733.462V133.814H735.1ZM746.276 134.932C746.276 135.201 746.259 135.444 746.224 135.66H740.751C740.794 136.232 741.007 136.692 741.388 137.038C741.769 137.385 742.237 137.558 742.792 137.558C743.589 137.558 744.153 137.225 744.482 136.557H746.081C745.864 137.216 745.47 137.758 744.898 138.182C744.335 138.598 743.633 138.806 742.792 138.806C742.107 138.806 741.492 138.655 740.946 138.351C740.409 138.039 739.984 137.606 739.672 137.051C739.369 136.488 739.217 135.838 739.217 135.101C739.217 134.365 739.364 133.719 739.659 133.164C739.962 132.601 740.383 132.168 740.92 131.864C741.466 131.561 742.09 131.409 742.792 131.409C743.468 131.409 744.07 131.557 744.599 131.851C745.128 132.146 745.539 132.562 745.834 133.099C746.129 133.628 746.276 134.239 746.276 134.932ZM744.729 134.464C744.72 133.918 744.525 133.481 744.144 133.151C743.763 132.822 743.29 132.657 742.727 132.657C742.216 132.657 741.778 132.822 741.414 133.151C741.05 133.472 740.833 133.91 740.764 134.464H744.729ZM756.405 131.409C756.969 131.409 757.471 131.526 757.913 131.76C758.364 131.994 758.715 132.341 758.966 132.8C759.226 133.26 759.356 133.814 759.356 134.464V138.689H757.887V134.685C757.887 134.044 757.727 133.554 757.406 133.216C757.086 132.87 756.648 132.696 756.093 132.696C755.539 132.696 755.097 132.87 754.767 133.216C754.447 133.554 754.286 134.044 754.286 134.685V138.689H752.817V134.685C752.817 134.044 752.657 133.554 752.336 133.216C752.016 132.87 751.578 132.696 751.023 132.696C750.469 132.696 750.027 132.87 749.697 133.216C749.377 133.554 749.216 134.044 749.216 134.685V138.689H747.734V131.526H749.216V132.345C749.459 132.051 749.767 131.821 750.139 131.656C750.512 131.492 750.911 131.409 751.335 131.409C751.907 131.409 752.419 131.531 752.869 131.773C753.32 132.016 753.667 132.367 753.909 132.826C754.126 132.393 754.464 132.051 754.923 131.799C755.383 131.539 755.877 131.409 756.405 131.409ZM762.724 132.592C762.976 132.246 763.318 131.964 763.751 131.747C764.193 131.522 764.683 131.409 765.22 131.409C765.853 131.409 766.425 131.561 766.936 131.864C767.448 132.168 767.851 132.601 768.145 133.164C768.44 133.719 768.587 134.356 768.587 135.075C768.587 135.795 768.44 136.44 768.145 137.012C767.851 137.576 767.443 138.018 766.923 138.338C766.412 138.65 765.844 138.806 765.22 138.806C764.666 138.806 764.172 138.698 763.738 138.481C763.314 138.265 762.976 137.987 762.724 137.649V138.689H761.242V129.069H762.724V132.592ZM767.079 135.075C767.079 134.581 766.975 134.157 766.767 133.801C766.568 133.437 766.299 133.164 765.961 132.982C765.632 132.792 765.277 132.696 764.895 132.696C764.523 132.696 764.167 132.792 763.829 132.982C763.5 133.173 763.231 133.45 763.023 133.814C762.824 134.178 762.724 134.607 762.724 135.101C762.724 135.595 762.824 136.029 763.023 136.401C763.231 136.765 763.5 137.043 763.829 137.233C764.167 137.424 764.523 137.519 764.895 137.519C765.277 137.519 765.632 137.424 765.961 137.233C766.299 137.034 766.568 136.748 766.767 136.375C766.975 136.003 767.079 135.569 767.079 135.075ZM769.559 135.075C769.559 134.356 769.706 133.719 770.001 133.164C770.304 132.61 770.711 132.181 771.223 131.877C771.743 131.565 772.315 131.409 772.939 131.409C773.502 131.409 773.992 131.522 774.408 131.747C774.832 131.964 775.17 132.237 775.422 132.566V131.526H776.917V138.689H775.422V137.623C775.17 137.961 774.828 138.243 774.395 138.468C773.961 138.694 773.467 138.806 772.913 138.806C772.297 138.806 771.734 138.65 771.223 138.338C770.711 138.018 770.304 137.576 770.001 137.012C769.706 136.44 769.559 135.795 769.559 135.075ZM775.422 135.101C775.422 134.607 775.318 134.178 775.11 133.814C774.91 133.45 774.646 133.173 774.317 132.982C773.987 132.792 773.632 132.696 773.251 132.696C772.869 132.696 772.514 132.792 772.185 132.982C771.855 133.164 771.587 133.437 771.379 133.801C771.179 134.157 771.08 134.581 771.08 135.075C771.08 135.569 771.179 136.003 771.379 136.375C771.587 136.748 771.855 137.034 772.185 137.233C772.523 137.424 772.878 137.519 773.251 137.519C773.632 137.519 773.987 137.424 774.317 137.233C774.646 137.043 774.91 136.765 775.11 136.401C775.318 136.029 775.422 135.595 775.422 135.101ZM785.311 131.526L780.917 142.056H779.383L780.839 138.572L778.018 131.526H779.669L781.684 136.986L783.777 131.526H785.311ZM785.936 135.075C785.936 134.356 786.083 133.719 786.378 133.164C786.681 132.61 787.088 132.181 787.6 131.877C788.12 131.565 788.692 131.409 789.316 131.409C789.879 131.409 790.369 131.522 790.785 131.747C791.209 131.964 791.547 132.237 791.799 132.566V131.526H793.294V138.689H791.799V137.623C791.547 137.961 791.205 138.243 790.772 138.468C790.338 138.694 789.844 138.806 789.29 138.806C788.674 138.806 788.111 138.65 787.6 138.338C787.088 138.018 786.681 137.576 786.378 137.012C786.083 136.44 785.936 135.795 785.936 135.075ZM791.799 135.101C791.799 134.607 791.695 134.178 791.487 133.814C791.287 133.45 791.023 133.173 790.694 132.982C790.364 132.792 790.009 132.696 789.628 132.696C789.246 132.696 788.891 132.792 788.562 132.982C788.232 133.164 787.964 133.437 787.756 133.801C787.556 134.157 787.457 134.581 787.457 135.075C787.457 135.569 787.556 136.003 787.756 136.375C787.964 136.748 788.232 137.034 788.562 137.233C788.9 137.424 789.255 137.519 789.628 137.519C790.009 137.519 790.364 137.424 790.694 137.233C791.023 137.043 791.287 136.765 791.487 136.401C791.695 136.029 791.799 135.595 791.799 135.101ZM796.722 132.566C796.939 132.202 797.225 131.921 797.58 131.721C797.944 131.513 798.373 131.409 798.867 131.409V132.943H798.49C797.91 132.943 797.468 133.091 797.164 133.385C796.87 133.68 796.722 134.191 796.722 134.919V138.689H795.24V131.526H796.722V132.566ZM799.736 135.075C799.736 134.356 799.883 133.719 800.178 133.164C800.481 132.61 800.888 132.181 801.4 131.877C801.92 131.565 802.492 131.409 803.116 131.409C803.679 131.409 804.169 131.522 804.585 131.747C805.009 131.964 805.347 132.237 805.599 132.566V131.526H807.094V138.689H805.599V137.623C805.347 137.961 805.005 138.243 804.572 138.468C804.138 138.694 803.644 138.806 803.09 138.806C802.474 138.806 801.911 138.65 801.4 138.338C800.888 138.018 800.481 137.576 800.178 137.012C799.883 136.44 799.736 135.795 799.736 135.075ZM805.599 135.101C805.599 134.607 805.495 134.178 805.287 133.814C805.087 133.45 804.823 133.173 804.494 132.982C804.164 132.792 803.809 132.696 803.428 132.696C803.046 132.696 802.691 132.792 802.362 132.982C802.032 133.164 801.764 133.437 801.556 133.801C801.356 134.157 801.257 134.581 801.257 135.075C801.257 135.569 801.356 136.003 801.556 136.375C801.764 136.748 802.032 137.034 802.362 137.233C802.7 137.424 803.055 137.519 803.428 137.519C803.809 137.519 804.164 137.424 804.494 137.233C804.823 137.043 805.087 136.765 805.287 136.401C805.495 136.029 805.599 135.595 805.599 135.101ZM812.654 131.409C813.217 131.409 813.72 131.526 814.162 131.76C814.613 131.994 814.964 132.341 815.215 132.8C815.466 133.26 815.592 133.814 815.592 134.464V138.689H814.123V134.685C814.123 134.044 813.963 133.554 813.642 133.216C813.321 132.87 812.884 132.696 812.329 132.696C811.774 132.696 811.332 132.87 811.003 133.216C810.682 133.554 810.522 134.044 810.522 134.685V138.689H809.04V131.526H810.522V132.345C810.765 132.051 811.072 131.821 811.445 131.656C811.826 131.492 812.229 131.409 812.654 131.409Z" fill="#FAFAFA" fill-opacity="0.7"/>
<rect x="602.41" y="99.1895" width="171.19" height="3" fill="#CFD8DC"/>
<rect x="761.58" y="87.6895" width="24" height="24" rx="12" fill="#E4E5E5"/>
<rect x="761.58" y="87.6895" width="24" height="24" rx="12" stroke="#8191AB"/>
<path d="M770.493 98.3775C770.528 97.4501 770.831 96.7351 771.403 96.2325C771.975 95.7298 772.751 95.4785 773.73 95.4785C774.38 95.4785 774.935 95.5911 775.394 95.8165C775.862 96.0418 776.213 96.3495 776.447 96.7395C776.69 97.1295 776.811 97.5671 776.811 98.0525C776.811 98.6245 776.668 99.0925 776.382 99.4565C776.096 99.8118 775.763 100.054 775.381 100.184V100.236C775.875 100.401 776.265 100.674 776.551 101.055C776.837 101.437 776.98 101.926 776.98 102.524C776.98 103.062 776.855 103.538 776.603 103.954C776.361 104.362 776.001 104.682 775.524 104.916C775.056 105.15 774.497 105.267 773.847 105.267C772.807 105.267 771.975 105.012 771.351 104.5C770.736 103.989 770.411 103.218 770.376 102.186H772.534C772.543 102.568 772.651 102.871 772.859 103.096C773.067 103.313 773.371 103.421 773.769 103.421C774.107 103.421 774.367 103.326 774.549 103.135C774.74 102.936 774.835 102.676 774.835 102.355C774.835 101.939 774.701 101.64 774.432 101.458C774.172 101.268 773.752 101.172 773.171 101.172H772.755V99.3655H773.171C773.613 99.3655 773.969 99.2918 774.237 99.1445C774.515 98.9885 774.653 98.7155 774.653 98.3255C774.653 98.0135 774.567 97.7708 774.393 97.5975C774.22 97.4241 773.982 97.3375 773.678 97.3375C773.349 97.3375 773.102 97.4371 772.937 97.6365C772.781 97.8358 772.69 98.0828 772.664 98.3775H770.493Z" fill="#8191AB"/>
<path d="M904.379 130.85V133.502H907.499V134.711H904.379V137.48H907.889V138.689H902.897V129.641H907.889V130.85H904.379ZM915.213 133.359V134.607H909.87V133.359H915.213ZM923.156 129.654V130.863H920.751V138.689H919.269V130.863H916.851V129.654H923.156ZM925.411 130.577C925.142 130.577 924.917 130.486 924.735 130.304C924.553 130.122 924.462 129.897 924.462 129.628C924.462 129.36 924.553 129.134 924.735 128.952C924.917 128.77 925.142 128.679 925.411 128.679C925.671 128.679 925.892 128.77 926.074 128.952C926.256 129.134 926.347 129.36 926.347 129.628C926.347 129.897 926.256 130.122 926.074 130.304C925.892 130.486 925.671 130.577 925.411 130.577ZM926.139 131.526V138.689H924.657V131.526H926.139ZM930.919 135.114L934.221 138.689H932.219L929.567 135.608V138.689H928.085V129.069H929.567V134.659L932.167 131.526H934.221L930.919 135.114ZM941.848 134.932C941.848 135.201 941.83 135.444 941.796 135.66H936.323C936.366 136.232 936.578 136.692 936.96 137.038C937.341 137.385 937.809 137.558 938.364 137.558C939.161 137.558 939.724 137.225 940.054 136.557H941.653C941.436 137.216 941.042 137.758 940.47 138.182C939.906 138.598 939.204 138.806 938.364 138.806C937.679 138.806 937.064 138.655 936.518 138.351C935.98 138.039 935.556 137.606 935.244 137.051C934.94 136.488 934.789 135.838 934.789 135.101C934.789 134.365 934.936 133.719 935.231 133.164C935.534 132.601 935.954 132.168 936.492 131.864C937.038 131.561 937.662 131.409 938.364 131.409C939.04 131.409 939.642 131.557 940.171 131.851C940.699 132.146 941.111 132.562 941.406 133.099C941.7 133.628 941.848 134.239 941.848 134.932ZM940.301 134.464C940.292 133.918 940.097 133.481 939.716 133.151C939.334 132.822 938.862 132.657 938.299 132.657C937.787 132.657 937.35 132.822 936.986 133.151C936.622 133.472 936.405 133.91 936.336 134.464H940.301ZM945.035 132.735V136.7C945.035 136.969 945.096 137.164 945.217 137.285C945.347 137.398 945.564 137.454 945.867 137.454H946.777V138.689H945.607C944.94 138.689 944.429 138.533 944.073 138.221C943.718 137.909 943.54 137.402 943.54 136.7V132.735H942.695V131.526H943.54V129.745H945.035V131.526H946.777V132.735H945.035ZM957.357 129.654V130.863H954.952V138.689H953.47V130.863H951.052V129.654H957.357ZM965.423 134.932C965.423 135.201 965.406 135.444 965.371 135.66H959.898C959.941 136.232 960.154 136.692 960.535 137.038C960.916 137.385 961.384 137.558 961.939 137.558C962.736 137.558 963.3 137.225 963.629 136.557H965.228C965.011 137.216 964.617 137.758 964.045 138.182C963.482 138.598 962.78 138.806 961.939 138.806C961.254 138.806 960.639 138.655 960.093 138.351C959.556 138.039 959.131 137.606 958.819 137.051C958.516 136.488 958.364 135.838 958.364 135.101C958.364 134.365 958.511 133.719 958.806 133.164C959.109 132.601 959.53 132.168 960.067 131.864C960.613 131.561 961.237 131.409 961.939 131.409C962.615 131.409 963.217 131.557 963.746 131.851C964.275 132.146 964.686 132.562 964.981 133.099C965.276 133.628 965.423 134.239 965.423 134.932ZM963.876 134.464C963.867 133.918 963.672 133.481 963.291 133.151C962.91 132.822 962.437 132.657 961.874 132.657C961.363 132.657 960.925 132.822 960.561 133.151C960.197 133.472 959.98 133.91 959.911 134.464H963.876ZM968.363 132.566C968.58 132.202 968.866 131.921 969.221 131.721C969.585 131.513 970.014 131.409 970.508 131.409V132.943H970.131C969.551 132.943 969.109 133.091 968.805 133.385C968.511 133.68 968.363 134.191 968.363 134.919V138.689H966.881V131.526H968.363V132.566ZM973.353 132.592C973.604 132.246 973.946 131.964 974.38 131.747C974.822 131.522 975.311 131.409 975.849 131.409C976.481 131.409 977.053 131.561 977.565 131.864C978.076 132.168 978.479 132.601 978.774 133.164C979.068 133.719 979.216 134.356 979.216 135.075C979.216 135.795 979.068 136.44 978.774 137.012C978.479 137.576 978.072 138.018 977.552 138.338C977.04 138.65 976.473 138.806 975.849 138.806C975.294 138.806 974.8 138.698 974.367 138.481C973.942 138.265 973.604 137.987 973.353 137.649V138.689H971.871V129.069H973.353V132.592ZM977.708 135.075C977.708 134.581 977.604 134.157 977.396 133.801C977.196 133.437 976.928 133.164 976.59 132.982C976.26 132.792 975.905 132.696 975.524 132.696C975.151 132.696 974.796 132.792 974.458 132.982C974.128 133.173 973.86 133.45 973.652 133.814C973.452 134.178 973.353 134.607 973.353 135.101C973.353 135.595 973.452 136.029 973.652 136.401C973.86 136.765 974.128 137.043 974.458 137.233C974.796 137.424 975.151 137.519 975.524 137.519C975.905 137.519 976.26 137.424 976.59 137.233C976.928 137.034 977.196 136.748 977.396 136.375C977.604 136.003 977.708 135.569 977.708 135.075ZM981.435 130.577C981.167 130.577 980.941 130.486 980.759 130.304C980.577 130.122 980.486 129.897 980.486 129.628C980.486 129.36 980.577 129.134 980.759 128.952C980.941 128.77 981.167 128.679 981.435 128.679C981.695 128.679 981.916 128.77 982.098 128.952C982.28 129.134 982.371 129.36 982.371 129.628C982.371 129.897 982.28 130.122 982.098 130.304C981.916 130.486 981.695 130.577 981.435 130.577ZM982.163 131.526V138.689H980.681V131.526H982.163ZM985.838 132.735V136.7C985.838 136.969 985.899 137.164 986.02 137.285C986.15 137.398 986.367 137.454 986.67 137.454H987.58V138.689H986.41C985.743 138.689 985.231 138.533 984.876 138.221C984.521 137.909 984.343 137.402 984.343 136.7V132.735H983.498V131.526H984.343V129.745H985.838V131.526H987.58V132.735H985.838Z" fill="#FAFAFA" fill-opacity="0.7"/>
<rect x="773.59" y="99.1895" width="171.19" height="3" fill="#CFD8DC"/>
<rect x="932.78" y="87.6895" width="24" height="24" rx="12" fill="#E4E5E5"/>
<rect x="932.78" y="87.6895" width="24" height="24" rx="12" stroke="#8191AB"/>
<path d="M941.221 103.499V101.705L945.329 95.8295H947.812V101.575H948.878V103.499H947.812V105.189H945.589V103.499H941.221ZM945.745 98.2735L943.561 101.575H945.745V98.2735Z" fill="#8191AB"/>
<defs>
<clipPath id="clip0_200_2233">
<rect width="1440" height="155.19" fill="white"/>
</clipPath>
<clipPath id="clip1_200_2233">
<rect width="1440" height="560" fill="white" transform="translate(0 -202.404)"/>
</clipPath>
</defs>
</svg>
